<svg width="124" height="52" viewBox="0 0 124 52" fill="none" xmlns="http://www.w3.org/2000/svg">
<rect width="121" height="52" rx="8" fill="#FFEB37"/>
<path d="M52.9982 18.7318H66.0882V20.2278H52.9982V18.7318ZM54.7142 26.1898H64.2842V27.5098H54.7142V26.1898ZM54.7142 29.8638H64.2842V31.2278H54.7142V29.8638ZM58.5642 15.6518H60.1482V35.7378H58.5642V15.6518ZM53.7462 22.4498H64.3062V23.8798H55.2862V35.8698H53.7462V22.4498ZM63.6682 22.4498H65.2302V34.0658C65.2302 34.8578 65.0762 35.2978 64.5482 35.5618C64.0202 35.8038 63.1842 35.8258 61.9742 35.8258C61.9082 35.4078 61.7102 34.7698 61.4902 34.3518C62.3482 34.3738 63.1182 34.3738 63.3602 34.3518C63.6022 34.3518 63.6682 34.2858 63.6682 34.0218V22.4498ZM61.3142 16.5758L62.2162 15.7178C63.2722 16.3338 64.6582 17.2578 65.4062 17.7858L64.4822 18.7978C63.7782 18.2258 62.3702 17.2578 61.3142 16.5758ZM47.5202 17.9398H52.4702V29.7538H47.5202V28.2358H51.0402V19.4578H47.5202V17.9398ZM46.6402 17.9398H48.0922V31.6898H46.6402V17.9398ZM68.7722 23.0658H76.9782V24.5398H68.7722V23.0658ZM72.6222 26.4318H74.2502V34.0218C74.2502 34.9238 74.0742 35.3638 73.4362 35.6278C72.7982 35.8698 71.8082 35.8698 70.3342 35.8698C70.2462 35.4078 70.0042 34.7918 69.7842 34.3518C70.9062 34.3738 71.9182 34.3738 72.2482 34.3738C72.5562 34.3518 72.6222 34.2638 72.6222 33.9998V26.4318ZM67.8042 28.7638C70.5982 28.5658 74.9102 28.2138 79.0022 27.8618V29.4018C75.0642 29.7758 70.8622 30.1498 67.9802 30.4138L67.8042 28.7638ZM76.4942 23.0658H76.9122L77.2862 22.9778L78.3642 23.8358C77.0882 25.1558 75.2842 26.6518 73.7442 27.5758C73.5242 27.3118 73.1062 26.8938 72.8642 26.6958C74.1402 25.8598 75.6802 24.4298 76.4942 23.3958V23.0658ZM77.5282 15.7178L78.5402 17.0818C75.9002 17.8958 71.6982 18.3798 68.2882 18.5778C68.2222 18.1818 68.0242 17.5878 67.8262 17.2138C71.1922 16.9498 75.2622 16.4438 77.5282 15.7178ZM79.8162 16.0258H81.5322V32.6798C81.5322 33.8238 81.6862 34.0438 82.5882 34.0438C83.0062 34.0438 85.0082 34.0438 85.5362 34.0438C86.4602 34.0438 86.5702 33.1638 86.6802 29.7758C87.0982 30.1058 87.7802 30.4138 88.2202 30.5458C88.0442 34.2858 87.6262 35.5838 85.6462 35.5838C85.2282 35.5838 82.7862 35.5838 82.3682 35.5838C80.3882 35.5838 79.8162 34.9458 79.8162 32.6358V16.0258ZM68.3102 19.4578L69.5862 19.1058C70.0922 20.0958 70.5102 21.3718 70.6642 22.2298L69.3002 22.6258C69.1902 21.7678 68.7722 20.4478 68.3102 19.4578ZM72.0722 18.8198L73.4362 18.6218C73.7442 19.6338 74.0082 20.9758 74.0522 21.8338L72.6222 22.0758C72.6002 21.2178 72.3582 19.8538 72.0722 18.8198ZM77.3522 18.4238L78.8702 19.0398C78.1002 20.4258 77.1322 22.0318 76.3402 23.0658L75.1082 22.5378C75.8782 21.4598 76.8242 19.6778 77.3522 18.4238ZM99.1102 26.8718H100.804V34.3298H99.1102V26.8718ZM92.7962 21.0418H107.36V22.4938H92.7962V21.0418ZM90.2882 33.7798H109.802V35.2538H90.2882V33.7798ZM92.3122 29.5558H107.866V31.0078H92.3122V29.5558ZM97.1962 21.8118L98.8902 22.2958C97.9882 23.8358 96.8222 25.6398 95.8982 26.7838L94.5782 26.3218C95.4582 25.1118 96.5802 23.1538 97.1962 21.8118ZM91.9162 25.7498C95.5462 25.7058 101.31 25.5298 106.744 25.3758L106.656 26.7838C101.332 27.0038 95.7002 27.1798 92.0042 27.2678L91.9162 25.7498ZM102.542 23.8138L103.73 22.9778C105.578 24.1658 107.822 25.9478 108.878 27.2238L107.602 28.1698C106.59 26.8938 104.39 25.0458 102.542 23.8138ZM99.1102 15.6518H100.804V18.3358H99.1102V15.6518ZM90.5522 17.3018H109.516V21.3718H107.844V18.8198H92.1582V21.3718H90.5522V17.3018Z" fill="black"/>
<path d="M24.8869 9C26.3626 9 27.7779 9.58781 28.8215 10.6341C29.865 11.6804 30.4512 13.0996 30.4512 14.5793C30.4512 16.059 29.865 17.4781 28.8215 18.5244C27.7779 19.5707 26.3626 20.1585 24.8869 20.1585C23.4111 20.1585 21.9958 19.5707 20.9523 18.5244C19.9088 17.4781 19.3225 16.059 19.3225 14.5793C19.3225 13.0996 19.9088 11.6804 20.9523 10.6341C21.9958 9.58781 23.4111 9 24.8869 9ZM39.7251 38.7561L36.0155 28.639C35.3664 26.7979 34.7914 25.1985 32.306 23.878C29.7464 22.5762 27.8916 22.0183 24.8869 22.0183C21.8636 22.0183 20.0274 22.5762 17.4678 23.878C14.9824 25.1985 14.4074 26.7979 13.7582 28.639L10.0487 38.7561C9.45512 41.2668 14.4259 43.2939 17.6718 44.6887V40.6159C17.6718 38.8491 19.2669 37.603 22.4571 36.8405C22.7539 36.7662 23.0321 36.729 23.2547 36.6918C22.2531 35.1668 21.845 33.8091 21.8079 33.6976L25.0909 32.5817C25.1094 32.6189 26.0554 35.5387 28.2997 37.0079C28.6892 37.1381 29.0787 37.2869 29.4496 37.4543C30.8778 38.0866 31.731 38.9049 32.0092 39.8906C29.5238 40.8762 27.1497 41.3784 24.8869 41.3784L23.0321 41.1924V46.0835L24.8869 46.1951C27.4279 46.1951 29.8391 45.6744 32.102 44.6887C35.3478 43.2939 40.1888 40.8576 39.7251 38.7561ZM31.3786 36.8963C30.6407 36.8963 29.9331 36.6024 29.4113 36.0793C28.8896 35.5561 28.5964 34.8466 28.5964 34.1067C28.5964 33.3669 28.8896 32.6573 29.4113 32.1341C29.9331 31.611 30.6407 31.3171 31.3786 31.3171C32.1165 31.3171 32.8241 31.611 33.3459 32.1341C33.8676 32.6573 34.1608 33.3669 34.1608 34.1067C34.1608 34.8466 33.8676 35.5561 33.3459 36.0793C32.8241 36.6024 32.1165 36.8963 31.3786 36.8963Z" fill="black"/>
</svg>
