<svg width="24" height="27" viewBox="0 0 24 27" fill="none" xmlns="http://www.w3.org/2000/svg">
<path d="M22.4 27C21.9467 27 21.5664 26.8704 21.2592 26.6112C20.952 26.352 20.7989 26.0316 20.8 25.65V16.2H19.2C18.32 16.2 17.5664 15.9354 16.9392 15.4062C16.312 14.877 15.9989 14.2416 16 13.5V6.75C16 4.8825 16.7803 3.2904 18.3408 1.9737C19.9013 0.657004 21.7877 -0.000895328 24 4.67128e-06V25.65C24 26.0325 23.8464 26.3533 23.5392 26.6125C23.232 26.8717 22.8523 27.0009 22.4 27ZM6.4 27C5.94667 27 5.5664 26.8704 5.2592 26.6112C4.952 26.352 4.79893 26.0316 4.8 25.65V14.6475C3.44 14.3325 2.29974 13.7025 1.3792 12.7575C0.458668 11.8125 -0.00106481 10.71 1.85185e-06 9.45V1.35C1.85185e-06 0.967504 0.153602 0.646654 0.460802 0.387454C0.768002 0.128255 1.14774 -0.000895328 1.6 4.67128e-06C2.05334 4.67128e-06 2.4336 0.129605 2.7408 0.388805C3.048 0.648005 3.20107 0.968404 3.2 1.35V9.45H4.8V1.35C4.8 0.967504 4.9536 0.646654 5.2608 0.387454C5.568 0.128255 5.94773 -0.000895328 6.4 4.67128e-06C6.85333 4.67128e-06 7.2336 0.129605 7.5408 0.388805C7.848 0.648005 8.00107 0.968404 8 1.35V9.45H9.6V1.35C9.6 0.967504 9.7536 0.646654 10.0608 0.387454C10.368 0.128255 10.7477 -0.000895328 11.2 4.67128e-06C11.6533 4.67128e-06 12.0336 0.129605 12.3408 0.388805C12.648 0.648005 12.8011 0.968404 12.8 1.35V9.45C12.8 10.71 12.3397 11.8125 11.4192 12.7575C10.4987 13.7025 9.35893 14.3325 8 14.6475V25.65C8 26.0325 7.8464 26.3533 7.5392 26.6125C7.232 26.8717 6.85227 27.0009 6.4 27Z" fill="#E2EEF8"/>
</svg>
