<svg width="35" height="13" viewBox="0 0 35 13" fill="none" xmlns="http://www.w3.org/2000/svg">
<path d="M14.6562 13V3.25001H10.7187V7.49714e-06H21.2187V3.25001H17.2812V13H14.6562ZM0 13V2.16667C0 1.55278 0.168 1.03784 0.504 0.62184C0.84 0.20584 1.25533 -0.00143695 1.75 7.49714e-06H7C7.49583 7.49714e-06 7.91175 0.208008 8.24775 0.624007C8.58375 1.04001 8.75116 1.55423 8.75 2.16667V13H6.125V9.75H2.625V13H0ZM2.625 6.5H6.125V3.25001H2.625V6.5ZM23.625 13V2.16667C23.625 1.55278 23.793 1.03784 24.129 0.62184C24.465 0.20584 24.8803 -0.00143695 25.375 7.49714e-06H33.25C33.7458 7.49714e-06 34.1617 0.208008 34.4977 0.624007C34.8337 1.04001 35.0012 1.55423 35 2.16667V13H32.375V3.25001H30.625V10.8333H28V3.25001H26.25V13H23.625Z" fill="#E2EEF8"/>
</svg>
