<svg width="61" height="61" viewBox="0 0 61 61" fill="none" xmlns="http://www.w3.org/2000/svg">
<circle cx="30.5" cy="30.5" r="30.5" fill="#FFEB37"/>
<path d="M30.5088 11.9024C31.9846 11.9024 33.3999 12.4903 34.4434 13.5366C35.4869 14.5829 36.0732 16.002 36.0732 17.4817C36.0732 18.9614 35.4869 20.3805 34.4434 21.4268C33.3999 22.4732 31.9846 23.061 30.5088 23.061C29.0331 23.061 27.6178 22.4732 26.5742 21.4268C25.5307 20.3805 24.9445 18.9614 24.9445 17.4817C24.9445 16.002 25.5307 14.5829 26.5742 13.5366C27.6178 12.4903 29.0331 11.9024 30.5088 11.9024ZM45.347 41.6585L41.6375 31.5415C40.9883 29.7003 40.4133 28.1009 37.9279 26.7805C35.3683 25.4787 33.5136 24.9207 30.5088 24.9207C27.4855 24.9207 25.6493 25.4787 23.0897 26.7805C20.6043 28.1009 20.0293 29.7003 19.3802 31.5415L15.6706 41.6585C15.0771 44.1692 20.0479 46.1963 23.2937 47.5912V43.5183C23.2937 41.7515 24.8888 40.5055 28.0791 39.743C28.3758 39.6686 28.654 39.6314 28.8766 39.5942C27.875 38.0692 27.467 36.7116 27.4299 36.6L30.7128 35.4841C30.7314 35.5213 31.6773 38.4412 33.9216 39.9104C34.3111 40.0405 34.7006 40.1893 35.0716 40.3567C36.4998 40.989 37.353 41.8073 37.6312 42.793C35.1458 43.7787 32.7717 44.2808 30.5088 44.2808L28.654 44.0948V48.986L30.5088 49.0976C33.0499 49.0976 35.4611 48.5768 37.7239 47.5912C40.9698 46.1963 45.8107 43.7601 45.347 41.6585ZM37.0005 39.7988C36.2627 39.7988 35.555 39.5049 35.0333 38.9817C34.5115 38.4586 34.2184 37.749 34.2184 37.0091C34.2184 36.2693 34.5115 35.5597 35.0333 35.0366C35.555 34.5134 36.2627 34.2195 37.0005 34.2195C37.7384 34.2195 38.4461 34.5134 38.9678 35.0366C39.4896 35.5597 39.7827 36.2693 39.7827 37.0091C39.7827 37.749 39.4896 38.4586 38.9678 38.9817C38.4461 39.5049 37.7384 39.7988 37.0005 39.7988Z" fill="black"/>
</svg>
