<svg width="61" height="61" viewBox="0 0 61 61" fill="none" xmlns="http://www.w3.org/2000/svg">
<circle cx="30.5" cy="30.5" r="30.5" fill="#FFEB37"/>
<g clip-path="url(#clip0_80_304)">
<path d="M45 52.1063V30.645C45 28.4797 43.3019 26.726 41.1362 26.726H19.8714C17.6322 26.726 16.0061 28.5034 16.0061 30.6442L16 30.645V52.1063C16 54.2954 17.7534 55.9992 19.8706 56H41.1605C43.2761 56 45.0038 54.395 45 52.1124V52.1071V52.1063ZM40.9922 51.9315H20.0078V30.8289H40.9922V51.9315ZM35.7463 10.1172C35.7228 7.31038 39.7382 7.27819 39.7609 10.1172L39.6995 18.6351L41.8591 15.9593C43.3496 14.3037 45.9707 16.6116 44.3529 18.481L39.1153 24.7876C38.2886 25.6246 37.2133 25.62 36.3912 24.7876L31.1786 18.4572C29.56 16.5863 32.2061 14.2547 33.6716 15.934L35.8069 18.6351L35.7463 10.1172ZM21.1724 23.3152C21.1489 26.122 25.1635 26.1534 25.187 23.3152L25.1264 14.7966L27.2852 17.4723C28.7765 19.1279 31.3976 16.82 29.7798 14.9506L24.5429 8.64482C23.7154 7.80782 22.6394 7.81319 21.818 8.64482L16.6054 14.9759C14.9861 16.8453 17.6322 19.1777 19.0985 17.4976L21.233 14.7966L21.1732 23.3152H21.1724Z" fill="black"/>
<path d="M41.9567 41.4157C41.9576 41.524 41.9378 41.6315 41.8985 41.7317C41.8591 41.832 41.8011 41.9232 41.7276 42C41.6542 42.0767 41.5668 42.1375 41.4706 42.1789C41.3744 42.2202 41.2712 42.2413 41.1671 42.2408H35.9697C35.7599 42.2399 35.5589 42.1526 35.4106 41.998C35.2624 41.8434 35.179 41.6341 35.1785 41.4157V35.5383C35.1771 35.3892 35.2041 35.2412 35.2581 35.1031C35.3121 34.9649 35.392 34.8393 35.4931 34.7335C35.5942 34.6278 35.7144 34.544 35.8469 34.4871C35.9794 34.4301 36.1214 34.4012 36.2648 34.4019H40.8662C41.0098 34.4008 41.1521 34.4295 41.2849 34.4863C41.4176 34.5431 41.5382 34.6268 41.6395 34.7326C41.7409 34.8384 41.821 34.9641 41.8751 35.1024C41.9293 35.2408 41.9564 35.3889 41.955 35.5383V41.4157H41.9567Z" fill="black"/>
<path d="M40.6852 42.0252H38.708V49.974C38.708 51.3834 40.6852 51.3834 40.6852 49.974V42.0252ZM38.4071 42.0252H36.429V49.974C36.429 51.3729 38.4071 51.3729 38.4071 49.974V42.0252ZM40.0708 32.38C40.0708 32.7897 39.9144 33.1825 39.636 33.4722C39.3577 33.7619 38.9801 33.9246 38.5864 33.9246C38.1927 33.9246 37.8152 33.7619 37.5368 33.4722C37.2584 33.1825 37.1021 32.7897 37.1021 32.38C37.1021 31.9704 37.2584 31.5775 37.5368 31.2878C37.8152 30.9982 38.1927 30.8354 38.5864 30.8354C38.9801 30.8354 39.3577 30.9982 39.636 31.2878C39.9144 31.5775 40.0708 31.9704 40.0708 32.38ZM34.8508 41.4155C34.8518 41.5239 34.8321 41.6313 34.7928 41.7317C34.7535 41.832 34.6954 41.9232 34.622 42C34.5485 42.0768 34.4611 42.1376 34.3648 42.1789C34.2685 42.2202 34.1654 42.2412 34.0612 42.2406H28.8638C28.6539 42.2397 28.4528 42.1524 28.3044 41.9979C28.1561 41.8433 28.0724 41.634 28.0718 41.4155V35.5381C28.0718 34.8639 28.5923 34.4017 29.158 34.4017H33.7603C34.3806 34.4017 34.8491 34.9154 34.8491 35.5381V41.4155H34.8508Z" fill="black"/>
<path d="M33.5802 42.0252H31.6022V49.974C31.6022 51.3834 33.5802 51.3834 33.5802 49.974V42.0252ZM31.3029 42.0252H29.3249V49.974C29.3249 51.3729 31.3029 51.3729 31.3029 49.974V42.0252ZM32.9658 32.38C32.9658 32.7897 32.8094 33.1825 32.5311 33.4722C32.2527 33.7619 31.8751 33.9246 31.4815 33.9246C31.0878 33.9246 30.7102 33.7619 30.4318 33.4722C30.1535 33.1825 29.9971 32.7897 29.9971 32.38C29.9971 31.9704 30.1535 31.5775 30.4318 31.2878C30.7102 30.9982 31.0878 30.8354 31.4815 30.8354C31.8751 30.8354 32.2527 30.9982 32.5311 31.2878C32.8094 31.5775 32.9658 31.9704 32.9658 32.38ZM27.7466 41.4155C27.7466 41.9031 27.3695 42.2406 26.9563 42.2406H21.7589C21.549 42.2397 21.348 42.1524 21.1998 41.9978C21.0515 41.8432 20.9681 41.6339 20.9677 41.4155V35.5381C20.9677 34.8639 21.4873 34.4017 22.0539 34.4017H26.6562C26.7997 34.4006 26.9421 34.4293 27.0748 34.4861C27.2076 34.5429 27.3282 34.6266 27.4295 34.7324C27.5309 34.8382 27.611 34.9639 27.6651 35.1022C27.7193 35.2406 27.7464 35.3887 27.745 35.5381V41.4155H27.7466Z" fill="black"/>
<path d="M26.476 42.0252H24.498V49.974C24.498 51.3834 26.476 51.3834 26.476 49.974V42.0252ZM24.1971 42.0252H22.2198V49.974C22.2198 51.3729 24.1971 51.3729 24.1971 49.974V42.0252ZM25.8616 32.38C25.8616 32.7897 25.7052 33.1825 25.4269 33.4722C25.1485 33.7619 24.7709 33.9246 24.3773 33.9246C23.9836 33.9246 23.606 33.7619 23.3276 33.4722C23.0493 33.1825 22.8929 32.7897 22.8929 32.38C22.8929 31.9704 23.0493 31.5775 23.3276 31.2878C23.606 30.9982 23.9836 30.8354 24.3773 30.8354C24.7709 30.8354 25.1485 30.9982 25.4269 31.2878C25.7052 31.5775 25.8616 31.9704 25.8616 32.38Z" fill="black"/>
</g>
<defs>
<clipPath id="clip0_80_304">
<rect width="57" height="54" fill="white" transform="translate(4 1)"/>
</clipPath>
</defs>
</svg>
