<svg width="61" height="61" viewBox="0 0 61 61" fill="none" xmlns="http://www.w3.org/2000/svg">
<circle cx="30.5" cy="30.5" r="30.5" fill="#FDD400"/>
<path d="M30 12C26.4399 12 22.9598 13.0557 19.9997 15.0335C17.0397 17.0114 14.7326 19.8226 13.3702 23.1117C12.0078 26.4008 11.6513 30.02 12.3459 33.5116C13.0404 37.0033 14.7547 40.2106 17.2721 42.7279C19.7894 45.2453 22.9967 46.9596 26.4884 47.6541C29.98 48.3487 33.5992 47.9922 36.8883 46.6298C40.1774 45.2674 42.9886 42.9603 44.9665 40.0003C46.9443 37.0402 48 33.5601 48 30C48 25.2261 46.1036 20.6477 42.7279 17.2721C39.3523 13.8964 34.7739 12 30 12ZM30 19.7143C30.3814 19.7143 30.7543 19.8274 31.0715 20.0393C31.3886 20.2512 31.6358 20.5524 31.7818 20.9048C31.9277 21.2572 31.9659 21.645 31.8915 22.0191C31.8171 22.3932 31.6334 22.7368 31.3637 23.0066C31.094 23.2763 30.7504 23.46 30.3762 23.5344C30.0021 23.6088 29.6144 23.5706 29.262 23.4246C28.9096 23.2787 28.6084 23.0315 28.3965 22.7143C28.1845 22.3972 28.0714 22.0243 28.0714 21.6429C28.0714 21.1314 28.2746 20.6408 28.6363 20.2791C28.998 19.9175 29.4885 19.7143 30 19.7143ZM35.1429 40.4464H24.8571V37.5536H28.5536V30.1607H26.1429V27.2679H31.4464V37.5536H35.1429V40.4464Z" fill="black"/>
</svg>
