<svg width="61" height="61" viewBox="0 0 61 61" fill="none" xmlns="http://www.w3.org/2000/svg">
<circle cx="30.5" cy="30.5" r="30.5" fill="#FFEB37"/>
<path d="M30.5 14C27.2366 14 24.0465 14.9677 21.3331 16.7808C18.6197 18.5938 16.5048 21.1707 15.256 24.1857C14.0071 27.2007 13.6804 30.5183 14.3171 33.719C14.9537 36.9197 16.5252 39.8597 18.8327 42.1673C21.1403 44.4748 24.0803 46.0463 27.281 46.6829C30.4817 47.3196 33.7993 46.9929 36.8143 45.744C39.8293 44.4952 42.4062 42.3803 44.2193 39.6669C46.0323 36.9535 47 33.7634 47 30.5C47 26.1239 45.2616 21.9271 42.1673 18.8327C39.0729 15.7384 34.8761 14 30.5 14ZM30.5 21.0714C30.8497 21.0714 31.1915 21.1751 31.4822 21.3694C31.7729 21.5636 31.9995 21.8397 32.1333 22.1628C32.2671 22.4858 32.3021 22.8412 32.2339 23.1842C32.1657 23.5271 31.9973 23.8421 31.7501 24.0893C31.5028 24.3366 31.1878 24.505 30.8449 24.5732C30.502 24.6414 30.1465 24.6064 29.8235 24.4726C29.5004 24.3388 29.2243 24.1122 29.0301 23.8215C28.8358 23.5307 28.7321 23.1889 28.7321 22.8393C28.7321 22.3704 28.9184 21.9208 29.2499 21.5892C29.5815 21.2577 30.0311 21.0714 30.5 21.0714ZM35.2143 40.0759H25.7857V37.4241H29.1741V30.6473H26.9643V27.9955H31.8259V37.4241H35.2143V40.0759Z" fill="black"/>
</svg>
