<svg width="61" height="61" viewBox="0 0 61 61" fill="none" xmlns="http://www.w3.org/2000/svg">
<circle cx="30.5" cy="30.5" r="30.5" fill="#FDD400"/>
<path d="M41.2667 47C40.7756 47 40.3636 46.8368 40.0308 46.5104C39.698 46.184 39.5322 45.7805 39.5333 45.3V33.4H37.8C36.8467 33.4 36.0303 33.0668 35.3508 32.4004C34.6713 31.734 34.3322 30.9339 34.3333 30V21.5C34.3333 19.1483 35.1786 17.1435 36.8692 15.4854C38.5598 13.8273 40.6034 12.9989 43 13V45.3C43 45.7817 42.8336 46.1857 42.5008 46.5121C42.168 46.8385 41.7566 47.0011 41.2667 47ZM23.9333 47C23.4422 47 23.0303 46.8368 22.6975 46.5104C22.3647 46.184 22.1988 45.7805 22.2 45.3V31.445C20.7267 31.0483 19.4914 30.255 18.4941 29.065C17.4969 27.875 16.9988 26.4867 17 24.9V14.7C17 14.2183 17.1664 13.8143 17.4992 13.4879C17.832 13.1615 18.2434 12.9989 18.7333 13C19.2244 13 19.6364 13.1632 19.9692 13.4896C20.302 13.816 20.4678 14.2195 20.4667 14.7V24.9H22.2V14.7C22.2 14.2183 22.3664 13.8143 22.6992 13.4879C23.032 13.1615 23.4434 12.9989 23.9333 13C24.4244 13 24.8364 13.1632 25.1692 13.4896C25.502 13.816 25.6678 14.2195 25.6667 14.7V24.9H27.4V14.7C27.4 14.2183 27.5664 13.8143 27.8992 13.4879C28.232 13.1615 28.6434 12.9989 29.1333 13C29.6244 13 30.0364 13.1632 30.3692 13.4896C30.702 13.816 30.8678 14.2195 30.8667 14.7V24.9C30.8667 26.4867 30.368 27.875 29.3708 29.065C28.3736 30.255 27.1388 31.0483 25.6667 31.445V45.3C25.6667 45.7817 25.5003 46.1857 25.1675 46.5121C24.8347 46.8385 24.4233 47.0011 23.9333 47Z" fill="black"/>
</svg>
