<svg width="61" height="61" viewBox="0 0 61 61" fill="none" xmlns="http://www.w3.org/2000/svg">
<circle cx="30.5" cy="30.5" r="30.5" fill="#FFEB37"/>
<path d="M40.865 46.1219C40.4294 46.1219 40.064 45.9755 39.7688 45.6827C39.4737 45.3899 39.3266 45.028 39.3276 44.5969V33.9219H37.7902C36.9446 33.9219 36.2205 33.623 35.6179 33.0252C35.0152 32.4274 34.7144 31.7097 34.7154 30.8719V23.247C34.7154 21.1374 35.4652 19.3389 36.9646 17.8515C38.4641 16.3641 40.2767 15.6209 42.4024 15.622V44.5969C42.4024 45.029 42.2548 45.3915 41.9596 45.6843C41.6645 45.9771 41.2996 46.123 40.865 46.1219ZM25.491 46.1219C25.0554 46.1219 24.69 45.9755 24.3949 45.6827C24.0997 45.3899 23.9526 45.028 23.9536 44.5969V32.1682C22.6468 31.8124 21.5512 31.1007 20.6667 30.0332C19.7822 28.9657 19.3404 27.7203 19.3414 26.2969V17.147C19.3414 16.7149 19.489 16.3524 19.7842 16.0596C20.0794 15.7668 20.4443 15.6209 20.8788 15.622C21.3144 15.622 21.6798 15.7684 21.975 16.0612C22.2702 16.354 22.4173 16.7159 22.4162 17.147V26.2969H23.9536V17.147C23.9536 16.7149 24.1012 16.3524 24.3964 16.0596C24.6916 15.7668 25.0565 15.6209 25.491 15.622C25.9266 15.622 26.292 15.7684 26.5872 16.0612C26.8824 16.354 27.0294 16.7159 27.0284 17.147V26.2969H28.5658V17.147C28.5658 16.7149 28.7134 16.3524 29.0086 16.0596C29.3038 15.7668 29.6686 15.6209 30.1032 15.622C30.5388 15.622 30.9042 15.7684 31.1994 16.0612C31.4946 16.354 31.6416 16.7159 31.6406 17.147V26.2969C31.6406 27.7203 31.1984 28.9657 30.3138 30.0332C29.4293 31.1007 28.3342 31.8124 27.0284 32.1682V44.5969C27.0284 45.029 26.8808 45.3915 26.5857 45.6843C26.2905 45.9771 25.9256 46.123 25.491 46.1219Z" fill="black"/>
</svg>
