<svg width="61" height="61" viewBox="0 0 61 61" fill="none" xmlns="http://www.w3.org/2000/svg">
<circle cx="30.5" cy="30.5" r="30.5" fill="#FDD400"/>
<path d="M38 21.8571V25.9286C38 26.2885 37.8595 26.6337 37.6095 26.8882C37.3594 27.1427 37.0203 27.2857 36.6667 27.2857H35.3333V21.8571H24.6667V27.2857H23.3333C22.9797 27.2857 22.6406 27.1427 22.3905 26.8882C22.1405 26.6337 22 26.2885 22 25.9286V21.8571H16.6667V46.2857H43.3333V21.8571H38ZM22 19.1429C22 16.9832 22.8429 14.9121 24.3431 13.385C25.8434 11.8579 27.8783 11 30 11C32.1217 11 34.1566 11.8579 35.6569 13.385C37.1571 14.9121 38 16.9832 38 19.1429H44.6667C45.0203 19.1429 45.3594 19.2858 45.6095 19.5404C45.8595 19.7949 46 20.1401 46 20.5V47.6429C46 48.0028 45.8595 48.348 45.6095 48.6025C45.3594 48.857 45.0203 49 44.6667 49H15.3333C14.9797 49 14.6406 48.857 14.3905 48.6025C14.1405 48.348 14 48.0028 14 47.6429V20.5C14 20.1401 14.1405 19.7949 14.3905 19.5404C14.6406 19.2858 14.9797 19.1429 15.3333 19.1429H22ZM24.6667 19.1429H35.3333C35.3333 17.7031 34.7714 16.3223 33.7712 15.3043C32.771 14.2862 31.4145 13.7143 30 13.7143C28.5855 13.7143 27.229 14.2862 26.2288 15.3043C25.2286 16.3223 24.6667 17.7031 24.6667 19.1429Z" fill="black"/>
</svg>
