<svg width="123" height="52" viewBox="0 0 123 52" fill="none" xmlns="http://www.w3.org/2000/svg">
<rect width="121" height="52" rx="8" fill="#FFEB37"/>
<path d="M55.5282 20.5358V22.2958H62.8762V20.5358H55.5282ZM55.5282 17.6098V19.3698H62.8762V17.6098H55.5282ZM54.0102 16.3558H64.4602V23.5718H54.0102V16.3558ZM52.9982 25.1558H65.6702V26.5418H52.9982V25.1558ZM58.4102 25.8378H59.9502V34.8358L58.4102 34.1978V25.8378ZM55.4622 29.8858C56.5842 33.5378 59.0042 34.0878 62.0622 34.0878C62.6122 34.0878 65.5822 34.0878 66.3522 34.0658C66.1322 34.4178 65.9122 35.1218 65.8682 35.5398H61.9962C58.3222 35.5398 55.7922 34.7478 54.4502 30.2598L55.4622 29.8858ZM59.4662 29.1158H64.5702V30.4798H59.4662V29.1158ZM54.4502 27.5758L55.9462 27.7518C55.5062 31.3818 54.3622 34.1098 52.3822 35.8698C52.1182 35.6058 51.4802 35.1218 51.1502 34.8798C53.1082 33.3178 54.0982 30.8318 54.4502 27.5758ZM45.6282 27.3338C47.3442 26.8718 49.8962 26.0798 52.3602 25.2878L52.6022 26.8058C50.3142 27.5538 47.9162 28.3458 46.0462 28.9398L45.6282 27.3338ZM45.8702 20.0738H52.5802V21.6138H45.8702V20.0738ZM48.5982 15.6518H50.1382V33.8238C50.1382 34.7258 49.9402 35.1658 49.3902 35.4298C48.8842 35.6938 48.0262 35.7378 46.6402 35.7378C46.5742 35.3418 46.3762 34.6598 46.1562 34.1978C47.1242 34.2198 47.9602 34.2198 48.2242 34.2198C48.5102 34.2198 48.5982 34.1318 48.5982 33.8018V15.6518ZM68.1342 17.7418H78.2982V19.1278H68.1342V17.7418ZM67.8702 27.1578H78.4962V28.5438H67.8702V27.1578ZM68.6402 21.0198H77.8362V22.4278H68.6402V21.0198ZM68.8822 24.0778H77.5722V25.4638H68.8822V24.0778ZM72.4462 27.7518H73.9862V34.1978C73.9862 34.9678 73.8542 35.4078 73.3042 35.6278C72.7762 35.8698 71.9842 35.8918 70.7302 35.8918C70.6642 35.4738 70.4442 34.8798 70.2462 34.4618C71.1262 34.4838 71.8962 34.4838 72.1382 34.4618C72.3802 34.4618 72.4462 34.3958 72.4462 34.1758V27.7518ZM72.4242 15.7178H73.9862V21.9218H72.4242V15.7178ZM69.5642 29.3138L70.9722 29.5778C70.5102 31.4258 69.7182 33.2298 68.8162 34.4398C68.5302 34.2418 67.8922 33.8898 67.5402 33.7578C68.4642 32.6138 69.1682 30.9638 69.5642 29.3138ZM75.2622 29.7978L76.5162 29.2918C77.1762 30.3478 77.8802 31.7338 78.1442 32.5918L76.8462 33.2298C76.5602 32.3498 75.9002 30.8758 75.2622 29.7978ZM80.1022 19.6338H86.7682V21.1518H80.1022V19.6338ZM82.7862 20.2498H83.5562V24.1658C83.5562 25.9258 84.2162 31.6238 88.2642 34.4838C87.9782 34.8578 87.4722 35.4958 87.2522 35.8918C84.1282 33.6478 82.9842 29.3578 82.7642 27.5538C82.5442 29.4458 81.2462 33.5378 77.6382 35.8918C77.4622 35.5398 77.0002 34.8798 76.6922 34.5718C81.3122 31.6238 81.9722 25.9698 81.9722 24.1658V20.2498H82.7862ZM80.1682 15.6078L81.8182 15.8718C81.3122 19.6778 80.3662 23.3078 78.9362 25.6838C78.6502 25.4198 77.9242 24.9358 77.5282 24.6938C78.9362 22.5158 79.7502 19.1278 80.1682 15.6078ZM86.3062 19.6338H86.5482L86.8342 19.5678L87.8902 19.8758C87.6042 21.8118 87.1862 24.1218 86.7462 25.5738L85.4262 25.1998C85.7782 23.8578 86.1082 21.6358 86.3062 19.9418V19.6338ZM96.6682 26.8938H110.022V28.2358H96.6682V26.8938ZM98.4062 30.3698L99.2862 29.3578C100.43 30.0178 101.904 31.0078 102.63 31.6898L101.706 32.8338C101.002 32.1298 99.5502 31.0738 98.4062 30.3698ZM105.534 25.5958L106.348 24.8038C107.162 25.2438 108.174 25.9038 108.68 26.4098L107.822 27.2678C107.338 26.7838 106.348 26.0578 105.534 25.5958ZM98.2962 27.5098H99.7922C99.5502 30.9198 98.8902 34.0218 96.4262 35.8258C96.2062 35.4958 95.7662 34.9898 95.4142 34.7478C97.5922 33.2078 98.1202 30.3918 98.2962 27.5098ZM102.256 15.6518H103.73C103.62 26.6078 105.226 34.4838 108.218 34.4838C108.856 34.4838 109.076 33.9778 109.186 31.9758C109.494 32.2838 110 32.5698 110.352 32.7018C110.066 35.1878 109.582 35.9138 108.108 35.9138C103.686 35.8918 102.3 26.8938 102.256 15.6518ZM107.184 28.5878L108.592 29.1158C107.162 32.1518 104.456 34.4618 101.068 35.8698C100.87 35.5838 100.452 35.0778 100.144 34.8138C103.444 33.5378 105.952 31.3158 107.184 28.5878ZM103.84 19.4798L104.522 18.5778C105.49 19.2378 106.59 20.2498 107.096 20.9538L106.392 21.9878C105.886 21.2618 104.786 20.2058 103.84 19.4798ZM107.954 22.1418L108.966 21.7458C109.582 22.7578 110.176 24.0778 110.352 24.9138L109.274 25.4198C109.076 24.5618 108.526 23.1758 107.954 22.1418ZM104.126 23.6818C105.49 23.5938 107.316 23.4838 109.252 23.3518V24.4958C107.492 24.6718 105.82 24.8258 104.368 24.9578L104.126 23.6818ZM106.392 15.8498L107.668 16.3558C107.052 17.5878 106.304 19.0178 105.688 19.9198L104.742 19.4798C105.292 18.5118 106.018 16.9278 106.392 15.8498ZM108.196 18.0498L109.428 18.6438C108.306 20.5358 106.81 22.8898 105.622 24.3858L104.698 23.8578C105.864 22.3398 107.36 19.8318 108.196 18.0498ZM96.3822 19.4798L97.0862 18.5778C98.0322 19.2378 99.1542 20.2498 99.6382 20.9538L98.9342 21.9878C98.4282 21.2618 97.3282 20.2058 96.3822 19.4798ZM100.21 22.2738L101.222 21.8998C101.794 22.9118 102.322 24.2538 102.454 25.0898L101.376 25.5518C101.222 24.6938 100.738 23.3298 100.21 22.2738ZM96.4702 23.9238C97.8562 23.8578 99.6602 23.7258 101.618 23.5718V24.7598C99.8582 24.9358 98.1642 25.0898 96.7122 25.2218L96.4702 23.9238ZM98.9562 15.8498L100.232 16.3778C99.5942 17.5878 98.8462 19.0398 98.2522 19.9418L97.3062 19.5238C97.8562 18.5338 98.5602 16.9278 98.9562 15.8498ZM100.76 18.0498L101.97 18.6438C100.826 20.6018 99.2862 23.0438 98.0322 24.5618L97.0862 24.0558C98.3182 22.4938 99.8802 19.8978 100.76 18.0498ZM90.1342 20.4038H96.8002V21.9438H90.1342V20.4038ZM92.9282 15.6298H94.4242V35.8478H92.9282V15.6298ZM92.8622 21.3278L93.8522 21.6358C93.2362 25.1118 91.9382 29.4458 90.4862 31.6458C90.3102 31.2498 89.9362 30.6338 89.6722 30.2818C91.0142 28.3018 92.3342 24.4518 92.8622 21.3278ZM94.3142 22.7798C94.7542 23.3738 96.4702 26.1238 96.8222 26.7618L95.9862 27.9718C95.5462 26.8718 94.1602 24.2758 93.6322 23.4178L94.3142 22.7798Z" fill="black"/>
<path d="M22.51 31.9024V22.9756H18.0745V20H29.9025V22.9756H25.467V31.9024H22.51ZM6 31.9024V21.9837C6 21.4217 6.18925 20.9502 6.56775 20.5693C6.94624 20.1885 7.41411 19.9987 7.97134 20H13.8854C14.4439 20 14.9124 20.1904 15.2909 20.5713C15.6694 20.9522 15.858 21.423 15.8567 21.9837V31.9024H12.8997V28.9268H8.95701V31.9024H6ZM8.95701 25.9512H12.8997V22.9756H8.95701V25.9512ZM32.6131 31.9024V21.9837C32.6131 21.4217 32.8024 20.9502 33.1808 20.5693C33.5593 20.1885 34.0272 19.9987 34.5844 20H43.4555C44.014 20 44.4825 20.1904 44.861 20.5713C45.2395 20.9522 45.4281 21.423 45.4268 21.9837V31.9024H42.4698V22.9756H40.4985V29.9187H37.5415V22.9756H35.5701V31.9024H32.6131Z" fill="black"/>
</svg>
