<svg width="124" height="52" viewBox="0 0 124 52" fill="none" xmlns="http://www.w3.org/2000/svg">
<rect width="121" height="52" rx="8" fill="#FFEB37"/>
<path d="M60.8902 28.9398H74.0682V30.0618H60.8902V28.9398ZM60.9342 26.2338H75.0142V32.7898H60.9342V31.5798H73.3862V27.4218H60.9342V26.2338ZM66.5662 26.8278H68.1502V33.4718C68.1502 34.2198 68.4142 34.3738 69.8222 34.3738C70.4822 34.3738 73.8702 34.3738 74.7282 34.3738C75.9162 34.3738 76.1142 33.9778 76.2242 31.7558C76.5982 32.0198 77.2142 32.2398 77.6762 32.3278C77.4342 35.0118 76.9282 35.6938 74.8382 35.6938C74.2662 35.6938 70.2842 35.6938 69.7342 35.6938C67.2702 35.6938 66.5662 35.2538 66.5662 33.4498V26.8278ZM60.0762 26.2338H61.6602V33.9338H60.0762V26.2338ZM59.4602 16.5758H75.5422V17.8738H59.4602V16.5758ZM60.8242 21.6138H65.4882V22.6698H60.8242V21.6138ZM60.3842 23.8798H65.5102V24.9138H60.3842V23.8798ZM69.4042 23.8798H74.6842V24.9138H69.4042V23.8798ZM69.4042 21.6138H74.1562V22.6698H69.4042V21.6138ZM66.6322 17.0818H68.2382V25.4858H66.6322V17.0818ZM58.1842 19.2158H76.8622V23.5058H75.3002V20.4258H59.6802V23.5058H58.1842V19.2158ZM88.1042 27.2678H98.2902V28.6978H88.1042V27.2678ZM88.8962 16.2018L90.2822 15.7398C90.8542 16.7298 91.4482 18.0498 91.6462 18.8638L90.2162 19.4358C90.0182 18.5778 89.4682 17.2358 88.8962 16.2018ZM96.1562 15.6518L97.8722 16.1798C97.2782 17.3018 96.6182 18.5338 96.0902 19.3478L94.7482 18.8638C95.2322 18.0058 95.8702 16.5978 96.1562 15.6518ZM92.3502 19.7218H93.8902V35.8698H92.3502V19.7218ZM88.1042 23.3958H89.6882C89.3582 25.3978 88.8962 27.9058 88.5222 29.4898L86.9822 29.3138C87.3782 27.7518 87.8402 25.2878 88.1042 23.3958ZM97.8062 27.2678H99.3682C99.3682 27.2678 99.3462 27.7078 99.3242 27.9278C99.1262 31.5138 98.9502 32.9878 98.4662 33.5158C98.1362 33.8678 97.8282 33.9998 97.3222 34.0658C96.8602 34.1098 96.0242 34.1098 95.1662 34.0658C95.1442 33.6038 94.9902 32.9878 94.7702 32.5918C95.5622 32.6578 96.2662 32.6798 96.5302 32.6798C96.8382 32.6798 97.0362 32.6578 97.1462 32.4818C97.4542 32.1298 97.6302 30.8978 97.8062 27.4878V27.2678ZM92.2622 27.9718L93.5602 28.4558C92.1082 31.0958 89.4902 33.6258 87.0262 34.9238C86.7622 34.5498 86.3002 33.9558 85.9262 33.6478C88.3462 32.5698 90.9202 30.2598 92.2622 27.9718ZM88.8742 23.3958H97.1462V20.7338H87.5542V19.2598H98.7082V24.8698H88.8742V23.3958ZM79.6342 20.4038H87.0702V21.9658H79.6342V20.4038ZM82.8902 15.6298H84.4302V35.8478H82.8902V15.6298ZM82.8462 21.3278L83.8802 21.6798C83.1762 25.1778 81.6582 29.5118 80.0522 31.7118C79.8762 31.2718 79.4582 30.6558 79.1942 30.2818C80.6902 28.3018 82.2082 24.4958 82.8462 21.3278ZM84.3202 23.2418C84.8262 23.8358 86.6742 26.4538 87.1142 27.0918L86.1462 28.3238C85.6402 27.2458 84.1442 24.8038 83.5502 23.9678L84.3202 23.2418Z" fill="black"/>
<path d="M38 43.4308V23.7579C38 21.773 36.419 20.1655 34.4027 20.1655H14.6044C12.5196 20.1655 11.0056 21.7948 11.0056 23.7572L11 23.7579V43.4308C11 45.4374 12.6325 46.9993 14.6037 47H34.4253C36.395 47 38.0035 45.5288 38 43.4364V43.4315V43.4308ZM34.2686 43.2706H14.7314V23.9265H34.2686V43.2706ZM29.3845 4.94078C29.3626 2.36785 33.101 2.33834 33.1222 4.94078L33.0651 12.7488L35.0757 10.296C36.4634 8.7784 38.9037 10.8939 37.3975 12.6076L32.5211 18.3886C31.7514 19.1558 30.7503 19.1516 29.9849 18.3886L25.1318 12.5858C23.6248 10.8708 26.0884 8.73343 27.4528 10.2728L29.4409 12.7488L29.3845 4.94078ZM15.8157 17.0389C15.7938 19.6118 19.5315 19.6406 19.5534 17.0389L19.497 9.23017L21.5069 11.683C22.8953 13.2006 25.3357 11.085 23.8294 9.3714L18.9537 3.59108C18.1833 2.82384 17.1815 2.82876 16.4168 3.59108L11.5637 9.39458C10.056 11.1082 12.5196 13.2463 13.8848 11.7061L15.8721 9.23017L15.8164 17.0389H15.8157Z" fill="black"/>
<path d="M34 35.3685C34.0008 35.4514 33.9832 35.5336 33.9484 35.6104C33.9136 35.6871 33.8622 35.7569 33.7972 35.8157C33.7322 35.8744 33.6549 35.921 33.5697 35.9526C33.4845 35.9842 33.3932 36.0004 33.3011 36H28.7004C28.5147 35.9993 28.3367 35.9325 28.2055 35.8142C28.0743 35.6959 28.0004 35.5356 28 35.3685V30.8698C27.9988 30.7557 28.0227 30.6424 28.0705 30.5367C28.1183 30.431 28.189 30.3348 28.2785 30.2539C28.368 30.1729 28.4744 30.1088 28.5917 30.0652C28.709 30.0217 28.8347 29.9995 28.9616 30H33.0347C33.1618 29.9992 33.2878 30.0212 33.4053 30.0646C33.5228 30.1081 33.6295 30.1722 33.7193 30.2532C33.809 30.3341 33.8799 30.4304 33.9278 30.5362C33.9757 30.6421 33.9998 30.7555 33.9985 30.8698V35.3685H34Z" fill="black"/>
<path d="M33 35.9732H31.4325V43.0579C31.4325 44.314 33 44.314 33 43.0579V35.9732ZM31.1939 35.9732H29.6257V43.0579C29.6257 44.3047 31.1939 44.3047 31.1939 43.0579V35.9732ZM32.5129 27.3767C32.5129 27.7418 32.3889 28.0919 32.1682 28.3501C31.9475 28.6083 31.6482 28.7533 31.3361 28.7533C31.024 28.7533 30.7247 28.6083 30.504 28.3501C30.2833 28.0919 30.1593 27.7418 30.1593 27.3767C30.1593 27.0115 30.2833 26.6614 30.504 26.4032C30.7247 26.145 31.024 26 31.3361 26C31.6482 26 31.9475 26.145 32.1682 26.4032C32.3889 26.6614 32.5129 27.0115 32.5129 27.3767ZM28.3744 35.4299C28.3752 35.5264 28.3596 35.6222 28.3285 35.7117C28.2973 35.8011 28.2513 35.8824 28.193 35.9508C28.1348 36.0192 28.0655 36.0734 27.9892 36.1102C27.9129 36.1471 27.831 36.1657 27.7485 36.1652H23.6279C23.4615 36.1644 23.3021 36.0866 23.1845 35.9489C23.0668 35.8111 23.0005 35.6246 23 35.4299V30.1914C23 29.5905 23.4127 29.1785 23.8612 29.1785H27.5099C28.0017 29.1785 28.3731 29.6364 28.3731 30.1914V35.4299H28.3744Z" fill="black"/>
<path d="M27 35.9732H25.2749V43.0579C25.2749 44.314 27 44.314 27 43.0579V35.9732ZM25.0139 35.9732H23.2887V43.0579C23.2887 44.3047 25.0139 44.3047 25.0139 43.0579V35.9732ZM26.4642 27.3767C26.4642 27.7418 26.3278 28.0919 26.085 28.3501C25.8422 28.6083 25.5129 28.7533 25.1696 28.7533C24.8262 28.7533 24.497 28.6083 24.2542 28.3501C24.0114 28.0919 23.875 27.7418 23.875 27.3767C23.875 27.0115 24.0114 26.6614 24.2542 26.4032C24.497 26.145 24.8262 26 25.1696 26C25.5129 26 25.8422 26.145 26.085 26.4032C26.3278 26.6614 26.4642 27.0115 26.4642 27.3767ZM21.9123 35.4299C21.9123 35.8644 21.5833 36.1652 21.223 36.1652H16.6901C16.507 36.1644 16.3317 36.0866 16.2025 35.9488C16.0732 35.8111 16.0004 35.6245 16 35.4299V30.1914C16 29.5905 16.4532 29.1785 16.9474 29.1785H20.9613C21.0864 29.1776 21.2106 29.2032 21.3264 29.2538C21.4422 29.3044 21.5473 29.379 21.6357 29.4733C21.7241 29.5676 21.7939 29.6796 21.8412 29.8029C21.8884 29.9262 21.9121 30.0583 21.9108 30.1914V35.4299H21.9123Z" fill="black"/>
<path d="M21 35.9732H19.141V43.0579C19.141 44.314 21 44.314 21 43.0579V35.9732ZM18.8582 35.9732H17V43.0579C17 44.3047 18.8582 44.3047 18.8582 43.0579V35.9732ZM20.4226 27.3767C20.4226 27.7418 20.2756 28.0919 20.014 28.3501C19.7524 28.6083 19.3976 28.7533 19.0276 28.7533C18.6576 28.7533 18.3027 28.6083 18.0411 28.3501C17.7795 28.0919 17.6325 27.7418 17.6325 27.3767C17.6325 27.0115 17.7795 26.6614 18.0411 26.4032C18.3027 26.145 18.6576 26 19.0276 26C19.3976 26 19.7524 26.145 20.014 26.4032C20.2756 26.6614 20.4226 27.0115 20.4226 27.3767Z" fill="black"/>
</svg>
