<svg width="123" height="52" viewBox="0 0 123 52" fill="none" xmlns="http://www.w3.org/2000/svg">
<rect width="121" height="52" rx="8" fill="#FFEB37"/>
<path d="M58.0082 17.7198H77.0382V19.2378H58.0082V17.7198ZM66.5882 15.6518H68.2822V18.5998H66.5882V15.6518ZM58.9542 21.5698H75.5642V23.0438H60.5162V35.8478H58.9542V21.5698ZM74.6842 21.5698H76.2682V33.8458C76.2682 34.8138 76.0482 35.3418 75.3442 35.6058C74.6182 35.8478 73.4082 35.8918 71.5822 35.8918C71.5162 35.4518 71.2522 34.7038 71.0322 34.2638C72.4622 34.3298 73.7822 34.3078 74.1782 34.2858C74.5742 34.2858 74.6842 34.1758 74.6842 33.8458V21.5698ZM64.4982 22.6478H65.9942C65.7742 25.5298 64.8502 27.0258 61.4622 27.8398C61.3082 27.4878 60.9342 26.9158 60.6482 26.6518C63.6182 26.0578 64.3222 24.9578 64.4982 22.6478ZM68.5902 22.6478H70.0422V25.2218C70.0422 25.6398 70.1302 25.6838 70.6802 25.6838C70.9662 25.6838 72.2642 25.6838 72.6162 25.6838C73.0782 25.6838 73.1662 25.5518 73.2322 24.2318C73.5182 24.4518 74.1122 24.6498 74.5082 24.7378C74.3762 26.5198 73.9802 26.9598 72.8142 26.9598C72.4842 26.9598 70.8342 26.9598 70.5262 26.9598C68.9422 26.9598 68.5902 26.6078 68.5902 25.2438V22.6478ZM63.4202 28.1038H64.8942V34.8578H63.4202V28.1038ZM64.3002 28.1038H71.7802V33.5158H64.3002V32.2178H70.2842V29.4018H64.3002V28.1038ZM62.2322 19.2378L63.8382 18.9078C64.3442 19.7438 64.8502 20.8658 65.0702 21.5918L63.3982 21.9878C63.2002 21.2398 62.7162 20.0958 62.2322 19.2378ZM71.0982 18.8418L72.9022 19.1718C72.3742 20.2278 71.8242 21.2618 71.3622 21.9878L69.7562 21.6578C70.2182 20.8878 70.7902 19.6558 71.0982 18.8418ZM90.8542 23.1758H99.1482V24.6498H90.8542V23.1758ZM85.6842 33.5598H96.7722V35.0338H85.6842V33.5598ZM90.0622 20.5578H91.7342V28.6098H90.0622V20.5578ZM84.8042 27.8178H97.6742V35.8698H95.9802V29.3138H86.4102V35.9138H84.8042V27.8178ZM89.2922 15.6518H90.9862V19.3918H89.2922V15.6518ZM81.9662 18.4898H99.4562V20.0738H81.9662V18.4898ZM81.1522 18.4898H82.8022V24.1878C82.8022 27.5758 82.4942 32.5478 80.6022 35.8918C80.3162 35.6058 79.5902 35.1438 79.1942 34.9678C80.9982 31.7998 81.1522 27.3558 81.1522 24.1878V18.4898Z" fill="black"/>
<path d="M33.5 18V21.75C33.5 22.0815 33.3683 22.3995 33.1339 22.6339C32.8995 22.8683 32.5815 23 32.25 23H31V18H21V23H19.75C19.4185 23 19.1005 22.8683 18.8661 22.6339C18.6317 22.3995 18.5 22.0815 18.5 21.75V18H13.5V40.5H38.5V18H33.5ZM18.5 15.5C18.5 13.5109 19.2902 11.6032 20.6967 10.1967C22.1032 8.79018 24.0109 8 26 8C27.9891 8 29.8968 8.79018 31.3033 10.1967C32.7098 11.6032 33.5 13.5109 33.5 15.5H39.75C40.0815 15.5 40.3995 15.6317 40.6339 15.8661C40.8683 16.1005 41 16.4185 41 16.75V41.75C41 42.0815 40.8683 42.3995 40.6339 42.6339C40.3995 42.8683 40.0815 43 39.75 43H12.25C11.9185 43 11.6005 42.8683 11.3661 42.6339C11.1317 42.3995 11 42.0815 11 41.75V16.75C11 16.4185 11.1317 16.1005 11.3661 15.8661C11.6005 15.6317 11.9185 15.5 12.25 15.5H18.5ZM21 15.5H31C31 14.1739 30.4732 12.9021 29.5355 11.9645C28.5979 11.0268 27.3261 10.5 26 10.5C24.6739 10.5 23.4021 11.0268 22.4645 11.9645C21.5268 12.9021 21 14.1739 21 15.5Z" fill="black"/>
</svg>
