<svg width="61" height="61" viewBox="0 0 61 61" fill="none" xmlns="http://www.w3.org/2000/svg">
<circle cx="30.5" cy="30.5" r="30.5" fill="#FDD400"/>
<path d="M27.4481 14C26.0721 14 24.8312 15.3983 24.8312 17.2971C24.8312 19.1993 26.0721 20.5942 27.4481 20.5942C28.824 20.5942 30.0649 19.1993 30.0649 17.2971C30.0649 15.3983 28.824 14 27.4481 14ZM39.9162 18.058L18.3084 39.7005H12V49H23.0838L44.6942 27.3575H51V18.058H39.9162ZM25.6078 21.6172C25.4896 21.8116 25.3799 22.0229 25.2701 22.2512C24.6032 23.6969 24.1558 25.785 24.1558 28.1014C24.1558 29.2681 24.274 30.3841 24.4682 31.3816L30.5208 25.32C30.3266 24.1365 30.0143 23.0882 29.626 22.2512C29.5162 22.0229 29.4065 21.8116 29.2883 21.6172C28.7396 21.9384 28.1149 22.1159 27.4481 22.1159C26.7812 22.1159 26.1565 21.9384 25.6078 21.6172Z" fill="black"/>
</svg>
