<svg width="61" height="61" viewBox="0 0 61 61" fill="none" xmlns="http://www.w3.org/2000/svg">
<circle cx="30.5" cy="30.5" r="30.5" fill="#FFEB37"/>
<path d="M37.5 23V26.75C37.5 27.0815 37.3683 27.3995 37.1339 27.6339C36.8995 27.8683 36.5815 28 36.25 28H35V23H25V28H23.75C23.4185 28 23.1005 27.8683 22.8661 27.6339C22.6317 27.3995 22.5 27.0815 22.5 26.75V23H17.5V45.5H42.5V23H37.5ZM22.5 20.5C22.5 18.5109 23.2902 16.6032 24.6967 15.1967C26.1032 13.7902 28.0109 13 30 13C31.9891 13 33.8968 13.7902 35.3033 15.1967C36.7098 16.6032 37.5 18.5109 37.5 20.5H43.75C44.0815 20.5 44.3995 20.6317 44.6339 20.8661C44.8683 21.1005 45 21.4185 45 21.75V46.75C45 47.0815 44.8683 47.3995 44.6339 47.6339C44.3995 47.8683 44.0815 48 43.75 48H16.25C15.9185 48 15.6005 47.8683 15.3661 47.6339C15.1317 47.3995 15 47.0815 15 46.75V21.75C15 21.4185 15.1317 21.1005 15.3661 20.8661C15.6005 20.6317 15.9185 20.5 16.25 20.5H22.5ZM25 20.5H35C35 19.1739 34.4732 17.9021 33.5355 16.9645C32.5979 16.0268 31.3261 15.5 30 15.5C28.6739 15.5 27.4021 16.0268 26.4645 16.9645C25.5268 17.9021 25 19.1739 25 20.5Z" fill="black"/>
</svg>
