<svg width="61" height="61" viewBox="0 0 61 61" fill="none" xmlns="http://www.w3.org/2000/svg">
<circle cx="30.5" cy="30.5" r="30.5" fill="#FFEB37"/>
<path d="M18.9257 47.6098V34.7774H16.3658V25.3671C16.3658 24.426 16.7003 23.6202 17.3693 22.9495C18.0383 22.2788 18.8416 21.944 19.779 21.9451H24.8988C25.8375 21.9451 26.6413 22.2805 27.3103 22.9512C27.9793 23.6219 28.3132 24.4272 28.312 25.3671V34.7774H25.7521V47.6098H18.9257ZM22.3389 20.2342C21.4003 20.2342 20.5965 19.8988 19.9275 19.2281C19.2585 18.5574 18.9246 17.7521 18.9257 16.8122C18.9257 15.8712 19.2602 15.0653 19.9292 14.3946C20.5982 13.7239 21.4015 13.3891 22.3389 13.3903C23.2776 13.3903 24.0814 13.7256 24.7504 14.3963C25.4194 15.067 25.7533 15.8723 25.7521 16.8122C25.7521 17.7532 25.4177 18.5591 24.7487 19.2298C24.0797 19.9005 23.2764 20.2353 22.3389 20.2342ZM35.1384 47.6098V37.3439H30.0186L34.3705 24.2549C34.598 23.5135 35.0178 22.9432 35.6299 22.544C36.242 22.1447 36.9315 21.9451 37.6983 21.9451C38.4663 21.9451 39.1563 22.1447 39.7684 22.544C40.3805 22.9432 40.7998 23.5135 41.0262 24.2549L45.378 37.3439H40.2582V47.6098H35.1384ZM37.6983 20.2342C36.7597 20.2342 35.9559 19.8988 35.2869 19.2281C34.6179 18.5574 34.284 17.7521 34.2851 16.8122C34.2851 15.8712 34.6196 15.0653 35.2886 14.3946C35.9576 13.7239 36.7609 13.3891 37.6983 13.3903C38.637 13.3903 39.4408 13.7256 40.1098 14.3963C40.7788 15.067 41.1127 15.8723 41.1115 16.8122C41.1115 17.7532 40.7771 18.5591 40.1081 19.2298C39.4391 19.9005 38.6358 20.2353 37.6983 20.2342Z" fill="black"/>
</svg>
