<svg width="33" height="42" viewBox="0 0 33 42" fill="none" xmlns="http://www.w3.org/2000/svg">
<path d="M16.5098 0C18.1464 0 19.716 0.651895 20.8733 1.81228C22.0306 2.97266 22.6807 4.54647 22.6807 6.1875C22.6807 7.82853 22.0306 9.40234 20.8733 10.5627C19.716 11.7231 18.1464 12.375 16.5098 12.375C14.8732 12.375 13.3036 11.7231 12.1463 10.5627C10.989 9.40234 10.3389 7.82853 10.3389 6.1875C10.3389 4.54647 10.989 2.97266 12.1463 1.81228C13.3036 0.651895 14.8732 0 16.5098 0ZM32.9656 33L28.8517 21.78C28.1317 19.7381 27.4941 17.9644 24.7377 16.5C21.8991 15.0562 19.8421 14.4375 16.5098 14.4375C13.1569 14.4375 11.1205 15.0562 8.28187 16.5C5.52552 17.9644 4.88786 19.7381 4.16791 21.78L0.0539542 33C-0.604279 35.7844 4.90842 38.0325 8.50814 39.5794V35.0625C8.50814 33.1031 10.2771 31.7212 13.8151 30.8756C14.1443 30.7931 14.4528 30.7519 14.6996 30.7106C13.5889 29.0194 13.1363 27.5137 13.0952 27.39L16.7361 26.1525C16.7566 26.1937 17.8057 29.4319 20.2946 31.0612C20.7266 31.2056 21.1586 31.3706 21.57 31.5562C23.1538 32.2575 24.1 33.165 24.4086 34.2581C21.6522 35.3512 19.0193 35.9081 16.5098 35.9081L14.4528 35.7019V41.1262L16.5098 41.25C19.3278 41.25 22.0019 40.6725 24.5114 39.5794C28.1112 38.0325 33.4799 35.3306 32.9656 33ZM23.7092 30.9375C22.8909 30.9375 22.1061 30.6115 21.5275 30.0314C20.9488 29.4512 20.6237 28.6643 20.6237 27.8437C20.6237 27.0232 20.9488 26.2363 21.5275 25.6561C22.1061 25.0759 22.8909 24.75 23.7092 24.75C24.5275 24.75 25.3123 25.0759 25.891 25.6561C26.4696 26.2363 26.7947 27.0232 26.7947 27.8437C26.7947 28.6643 26.4696 29.4512 25.891 30.0314C25.3123 30.6115 24.5275 30.9375 23.7092 30.9375Z" fill="#E2EEF8"/>
</svg>
