<svg width="33" height="33" viewBox="0 0 33 33" fill="none" xmlns="http://www.w3.org/2000/svg">
<path d="M16.5 0C13.2366 0 10.0465 0.967708 7.3331 2.78075C4.61969 4.59379 2.50484 7.17074 1.25599 10.1857C0.00714917 13.2007 -0.319606 16.5183 0.31705 19.719C0.953706 22.9197 2.52518 25.8597 4.83274 28.1673C7.14031 30.4748 10.0803 32.0463 13.281 32.683C16.4817 33.3196 19.7993 32.9929 22.8143 31.744C25.8293 30.4952 28.4062 28.3803 30.2193 25.6669C32.0323 22.9535 33 19.7634 33 16.5C33 12.1239 31.2616 7.92709 28.1673 4.83274C25.0729 1.73839 20.8761 0 16.5 0ZM16.5 7.07143C16.8497 7.07143 17.1915 7.17511 17.4822 7.36936C17.7729 7.56362 17.9995 7.83972 18.1333 8.16275C18.2671 8.48579 18.3021 8.84125 18.2339 9.18418C18.1657 9.52711 17.9973 9.84211 17.7501 10.0893C17.5028 10.3366 17.1878 10.505 16.8449 10.5732C16.502 10.6414 16.1465 10.6064 15.8235 10.4726C15.5004 10.3388 15.2243 10.1122 15.0301 9.82145C14.8358 9.53073 14.7321 9.18893 14.7321 8.83928C14.7321 8.37042 14.9184 7.92076 15.2499 7.58922C15.5815 7.25768 16.0311 7.07143 16.5 7.07143ZM21.2143 26.0759H11.7857V23.4241H15.1741V16.6473H12.9643V13.9955H17.8259V23.4241H21.2143V26.0759Z" fill="#E2EEF8"/>
</svg>
