<svg width="33" height="39" viewBox="0 0 33 39" fill="none" xmlns="http://www.w3.org/2000/svg">
<path d="M2.91176 38.9231V24.3269H0V13.6231C0 12.5527 0.38047 11.6361 1.14141 10.8732C1.90235 10.1103 2.816 9.72947 3.88235 9.73077H9.70588C10.7735 9.73077 11.6878 10.1122 12.4488 10.8751C13.2097 11.638 13.5895 12.554 13.5882 13.6231V24.3269H10.6765V38.9231H2.91176ZM6.79412 7.78462C5.72647 7.78462 4.81218 7.40317 4.05123 6.64028C3.29029 5.87739 2.91047 4.9614 2.91176 3.89231C2.91176 2.82193 3.29223 1.90529 4.05318 1.1424C4.81412 0.379503 5.72776 -0.00129413 6.79412 3.30417e-06C7.86176 3.30417e-06 8.77606 0.381449 9.537 1.14434C10.2979 1.90723 10.6778 2.82322 10.6765 3.89231C10.6765 4.9627 10.296 5.87933 9.53506 6.64223C8.77412 7.40512 7.86047 7.78592 6.79412 7.78462ZM21.3529 38.9231V27.2462H15.5294L20.4794 12.3581C20.7382 11.5147 21.2158 10.866 21.912 10.4119C22.6082 9.95782 23.3925 9.73077 24.2647 9.73077C25.1382 9.73077 25.9231 9.95782 26.6194 10.4119C27.3156 10.866 27.7925 11.5147 28.05 12.3581L33 27.2462H27.1765V38.9231H21.3529ZM24.2647 7.78462C23.1971 7.78462 22.2828 7.40317 21.5218 6.64028C20.7609 5.87739 20.3811 4.9614 20.3824 3.89231C20.3824 2.82193 20.7628 1.90529 21.5238 1.1424C22.2847 0.379503 23.1984 -0.00129413 24.2647 3.30417e-06C25.3324 3.30417e-06 26.2466 0.381449 27.0076 1.14434C27.7685 1.90723 28.1484 2.82322 28.1471 3.89231C28.1471 4.9627 27.7666 5.87933 27.0056 6.64223C26.2447 7.40512 25.3311 7.78592 24.2647 7.78462Z" fill="black"/>
</svg>
