<svg width="24" height="28" viewBox="0 0 24 28" fill="none" xmlns="http://www.w3.org/2000/svg">
<path d="M2.11765 28V17.5H0V9.8C0 9.03 0.276706 8.3706 0.830117 7.8218C1.38353 7.273 2.048 6.99907 2.82353 7H7.05882C7.83529 7 8.50024 7.2744 9.05365 7.8232C9.60706 8.372 9.88329 9.03094 9.88235 9.8V17.5H7.76471V28H2.11765ZM4.94118 5.6C4.16471 5.6 3.49976 5.3256 2.94635 4.7768C2.39294 4.228 2.11671 3.56907 2.11765 2.8C2.11765 2.03 2.39435 1.3706 2.94776 0.821802C3.50118 0.273002 4.16565 -0.000930956 4.94118 2.37691e-06C5.71765 2.37691e-06 6.38259 0.274402 6.936 0.823202C7.48941 1.372 7.76565 2.03094 7.76471 2.8C7.76471 3.57 7.488 4.2294 6.93459 4.7782C6.38118 5.327 5.71671 5.60094 4.94118 5.6ZM15.5294 28V19.6H11.2941L14.8941 8.89C15.0824 8.28334 15.4296 7.81667 15.936 7.49C16.4424 7.16334 17.0127 7 17.6471 7C18.2824 7 18.8532 7.16334 19.3595 7.49C19.8659 7.81667 20.2127 8.28334 20.4 8.89L24 19.6H19.7647V28H15.5294ZM17.6471 5.6C16.8706 5.6 16.2056 5.3256 15.6522 4.7768C15.0988 4.228 14.8226 3.56907 14.8235 2.8C14.8235 2.03 15.1002 1.3706 15.6536 0.821802C16.2071 0.273002 16.8715 -0.000930956 17.6471 2.37691e-06C18.4235 2.37691e-06 19.0885 0.274402 19.6419 0.823202C20.1953 1.372 20.4715 2.03094 20.4706 2.8C20.4706 3.57 20.1939 4.2294 19.6405 4.7782C19.0871 5.327 18.4226 5.60094 17.6471 5.6Z" fill="#E2EEF8"/>
</svg>
