<svg width="61" height="61" viewBox="0 0 61 61" fill="none" xmlns="http://www.w3.org/2000/svg">
<circle cx="30.5" cy="30.5" r="30.5" fill="#FFEB37"/>
<path d="M27.6685 36.4512V27.5244H23.233V24.5488H35.0611V27.5244H30.6256V36.4512H27.6685ZM11.1586 36.4512V26.5325C11.1586 25.9705 11.3478 25.499 11.7263 25.1181C12.1048 24.7372 12.5727 24.5475 13.1299 24.5488H19.0439C19.6025 24.5488 20.071 24.7392 20.4495 25.1201C20.828 25.501 21.0166 25.9718 21.0153 26.5325V36.4512H18.0583V33.4756H14.1156V36.4512H11.1586ZM14.1156 30.5H18.0583V27.5244H14.1156V30.5ZM37.7717 36.4512V26.5325C37.7717 25.9705 37.9609 25.499 38.3394 25.1181C38.7179 24.7372 39.1858 24.5475 39.743 24.5488H48.614C49.1726 24.5488 49.6411 24.7392 50.0196 25.1201C50.3981 25.501 50.5867 25.9718 50.5854 26.5325V36.4512H47.6284V27.5244H45.657V34.4675H42.7V27.5244H40.7287V36.4512H37.7717Z" fill="black"/>
</svg>
