<svg width="61" height="61" viewBox="0 0 61 61" fill="none" xmlns="http://www.w3.org/2000/svg">
<circle cx="30.5" cy="30.5" r="30.5" fill="#FDD400"/>
<path d="M27.2625 36V26.25H22.0875V23H35.8875V26.25H30.7125V36H27.2625ZM8 36V25.1667C8 24.5528 8.2208 24.0378 8.6624 23.6218C9.104 23.2058 9.64987 22.9986 10.3 23H17.2C17.8517 23 18.3983 23.208 18.8399 23.624C19.2815 24.04 19.5015 24.5542 19.5 25.1667V36H16.05V32.75H11.45V36H8ZM11.45 29.5H16.05V26.25H11.45V29.5ZM39.05 36V25.1667C39.05 24.5528 39.2708 24.0378 39.7124 23.6218C40.154 23.2058 40.6999 22.9986 41.35 23H51.7C52.3517 23 52.8983 23.208 53.3399 23.624C53.7815 24.04 54.0015 24.5542 54 25.1667V36H50.55V26.25H48.25V33.8333H44.8V26.25H42.5V36H39.05Z" fill="black"/>
</svg>
