<svg width="73" height="61" viewBox="0 0 73 61" fill="none" xmlns="http://www.w3.org/2000/svg">
<circle cx="30.5" cy="30.5" r="30.5" fill="#FDD400"/>
<g clip-path="url(#clip0_10_125)">
<path d="M46.8037 51.4521V27.3896C46.8037 24.9619 44.8829 22.9956 42.4331 22.9956H18.3791C15.8463 22.9956 14.0069 24.9885 14.0069 27.3888L14 27.3896V51.4521C14 53.9065 15.9834 55.8169 18.3783 55.8177H42.4606C44.8537 55.8177 46.808 54.0182 46.8037 51.459V51.453V51.4521ZM42.2703 51.2562H18.5334V27.5959H42.2703V51.2562ZM36.3363 4.37383C36.3097 1.2268 40.8517 1.1907 40.8774 4.37383L40.808 13.9241L43.2509 10.924C44.9369 9.06773 47.9017 11.6553 46.0717 13.7513L40.1471 20.8223C39.212 21.7607 37.9957 21.7555 37.0657 20.8223L31.1694 13.7247C29.3386 11.627 32.3317 9.01273 33.9894 10.8956L36.4049 13.9241L36.3363 4.37383ZM19.8509 19.1714C19.8243 22.3184 24.3654 22.3537 24.392 19.1714L24.3234 9.62031L26.7654 12.6204C28.4523 14.4766 31.4171 11.8891 29.5871 9.79305L23.6634 2.72297C22.7274 1.78453 21.5103 1.79055 20.5811 2.72297L14.6849 9.82141C12.8531 11.9174 15.8463 14.5325 17.5049 12.6488L19.9194 9.62031L19.8517 19.1714H19.8509Z" fill="black"/>
<path d="M41.9567 41.4155C41.9576 41.5238 41.9378 41.6313 41.8985 41.7315C41.8591 41.8318 41.8011 41.923 41.7276 41.9998C41.6542 42.0765 41.5668 42.1373 41.4706 42.1787C41.3744 42.22 41.2712 42.2411 41.1671 42.2406H35.9697C35.7599 42.2397 35.5589 42.1524 35.4106 41.9978C35.2624 41.8432 35.179 41.6339 35.1785 41.4155V35.5381C35.1771 35.389 35.2041 35.241 35.2581 35.1029C35.3121 34.9647 35.392 34.8391 35.4931 34.7333C35.5942 34.6276 35.7144 34.5438 35.8469 34.4869C35.9794 34.4299 36.1214 34.401 36.2648 34.4017H40.8662C41.0098 34.4006 41.1521 34.4293 41.2849 34.4861C41.4176 34.5429 41.5382 34.6266 41.6395 34.7324C41.7409 34.8382 41.821 34.9639 41.8751 35.1022C41.9293 35.2406 41.9564 35.3887 41.955 35.5381V41.4155H41.9567Z" fill="black"/>
<path d="M40.6852 42.0252H38.708V49.974C38.708 51.3834 40.6852 51.3834 40.6852 49.974V42.0252ZM38.4071 42.0252H36.429V49.974C36.429 51.3729 38.4071 51.3729 38.4071 49.974V42.0252ZM40.0708 32.38C40.0708 32.7897 39.9144 33.1825 39.636 33.4722C39.3577 33.7619 38.9801 33.9246 38.5864 33.9246C38.1927 33.9246 37.8152 33.7619 37.5368 33.4722C37.2584 33.1825 37.1021 32.7897 37.1021 32.38C37.1021 31.9704 37.2584 31.5775 37.5368 31.2878C37.8152 30.9982 38.1927 30.8355 38.5864 30.8355C38.9801 30.8355 39.3577 30.9982 39.636 31.2878C39.9144 31.5775 40.0708 31.9704 40.0708 32.38ZM34.8508 41.4155C34.8518 41.5239 34.8321 41.6313 34.7928 41.7317C34.7535 41.832 34.6954 41.9232 34.622 42C34.5485 42.0768 34.4611 42.1376 34.3648 42.1789C34.2685 42.2202 34.1654 42.2412 34.0612 42.2406H28.8638C28.6539 42.2397 28.4528 42.1524 28.3044 41.9979C28.1561 41.8433 28.0724 41.634 28.0718 41.4155V35.5381C28.0718 34.8639 28.5923 34.4017 29.158 34.4017H33.7603C34.3806 34.4017 34.8491 34.9154 34.8491 35.5381V41.4155H34.8508Z" fill="black"/>
<path d="M33.5802 42.0252H31.6022V49.974C31.6022 51.3834 33.5802 51.3834 33.5802 49.974V42.0252ZM31.3029 42.0252H29.3249V49.974C29.3249 51.3729 31.3029 51.3729 31.3029 49.974V42.0252ZM32.9658 32.38C32.9658 32.7897 32.8094 33.1825 32.5311 33.4722C32.2527 33.7619 31.8751 33.9246 31.4815 33.9246C31.0878 33.9246 30.7102 33.7619 30.4318 33.4722C30.1535 33.1825 29.9971 32.7897 29.9971 32.38C29.9971 31.9704 30.1535 31.5775 30.4318 31.2878C30.7102 30.9982 31.0878 30.8355 31.4815 30.8355C31.8751 30.8355 32.2527 30.9982 32.5311 31.2878C32.8094 31.5775 32.9658 31.9704 32.9658 32.38ZM27.7466 41.4155C27.7466 41.9031 27.3695 42.2406 26.9563 42.2406H21.7589C21.549 42.2397 21.348 42.1524 21.1998 41.9978C21.0515 41.8432 20.9681 41.6339 20.9677 41.4155V35.5381C20.9677 34.8639 21.4873 34.4017 22.0539 34.4017H26.6562C26.7997 34.4006 26.9421 34.4293 27.0748 34.4861C27.2076 34.5429 27.3282 34.6266 27.4295 34.7324C27.5309 34.8382 27.611 34.9639 27.6651 35.1022C27.7193 35.2406 27.7464 35.3887 27.745 35.5381V41.4155H27.7466Z" fill="black"/>
<path d="M26.476 42.0252H24.498V49.974C24.498 51.3834 26.476 51.3834 26.476 49.974V42.0252ZM24.1971 42.0252H22.2198V49.974C22.2198 51.3729 24.1971 51.3729 24.1971 49.974V42.0252ZM25.8616 32.38C25.8616 32.7897 25.7052 33.1825 25.4269 33.4722C25.1485 33.7619 24.7709 33.9246 24.3773 33.9246C23.9836 33.9246 23.606 33.7619 23.3276 33.4722C23.0493 33.1825 22.8929 32.7897 22.8929 32.38C22.8929 31.9704 23.0493 31.5775 23.3276 31.2878C23.606 30.9982 23.9836 30.8355 24.3773 30.8355C24.7709 30.8355 25.1485 30.9982 25.4269 31.2878C25.7052 31.5775 25.8616 31.9704 25.8616 32.38Z" fill="black"/>
</g>
<defs>
<clipPath id="clip0_10_125">
<rect width="69" height="54" fill="white" transform="translate(4 1)"/>
</clipPath>
</defs>
</svg>
