<svg width="61" height="61" viewBox="0 0 61 61" fill="none" xmlns="http://www.w3.org/2000/svg">
<circle cx="30.5" cy="30.5" r="30.5" fill="#FDD400"/>
<path d="M31.3835 24.0586C29.8518 24.0586 28.6 22.7636 28.6 21.1995C28.6 20.4457 28.8933 19.7228 29.4153 19.1898C29.9373 18.6567 30.6453 18.3573 31.3835 18.3573C32.9318 18.3573 34.1835 19.6355 34.1835 21.1995C34.1835 22.7636 32.9318 24.0586 31.3835 24.0586ZM26.3765 43.8368L16.6094 41.8523L17.1694 38.9932L24.0047 40.4227L26.2282 28.8855L23.7247 29.8945V34.7045H20.9412V28.0445L28.1882 24.8995L29.2918 24.765C30.28 24.765 31.1035 25.3368 31.6471 26.1945L33.0635 28.465C34.1835 30.5 36.4071 31.8791 39.0588 31.8791V34.7045C35.9953 34.7045 33.1953 33.3086 31.3835 31.1727L30.56 35.4445L33.4753 38.2868V49H30.6918V40.4227L27.76 37.5805L26.3765 43.8368ZM44 49H40.7059V15.3636H19.2941V37.4123L16 36.7059V12H44V49ZM19.2941 49H16V43.5845L19.2941 44.2909V49Z" fill="black"/>
</svg>
