<svg width="61" height="61" viewBox="0 0 61 61" fill="none" xmlns="http://www.w3.org/2000/svg">
<circle cx="30.5" cy="30.5" r="30.5" fill="#FFEB37"/>
<path d="M32.4936 24.0578C31.11 24.0578 29.9792 22.9122 29.9792 21.5285C29.9792 20.8617 30.2441 20.2221 30.7157 19.7506C31.1872 19.2791 31.8268 19.0141 32.4936 19.0141C33.8922 19.0141 35.0229 20.1449 35.0229 21.5285C35.0229 22.9122 33.8922 24.0578 32.4936 24.0578ZM27.9707 41.5544L19.148 39.7988L19.6539 37.2695L25.8283 38.5341L27.8368 28.3278L25.5753 29.2205V33.4756H23.0609V27.5839L29.6073 24.8017L30.6041 24.6827C31.4968 24.6827 32.2407 25.1885 32.7317 25.9473L34.0112 27.9559C35.0229 29.7561 37.0314 30.9761 39.4268 30.9761V33.4756C36.6595 33.4756 34.1302 32.2407 32.4936 30.3512L31.7497 34.1302L34.3831 36.6446V46.122H31.8688V38.5341L29.2205 36.0198L27.9707 41.5544ZM43.8902 46.122H40.9146V16.3659H21.5731V35.871L18.5975 35.2461V13.3902H43.8902V46.122ZM21.5731 46.122H18.5975V41.3312L21.5731 41.9561V46.122Z" fill="black"/>
</svg>
