<svg width="124" height="52" viewBox="0 0 124 52" fill="none" xmlns="http://www.w3.org/2000/svg">
<rect width="121" height="52" rx="8" fill="#FFEB37"/>
<path d="M48.8622 20.7998H63.2282V28.5878H48.4002V27.2238H61.6002V22.1858H48.8622V20.7998ZM51.3262 17.3018H58.8722V18.6658H51.3262V17.3018ZM49.0822 24.0338H62.2382V25.3318H49.0822V24.0338ZM51.8982 15.5638L53.6802 15.8938C52.3162 18.4018 50.2262 21.1078 47.1462 23.1758C46.8822 22.7798 46.3542 22.2518 45.9582 21.9878C48.8622 20.1838 50.8642 17.6758 51.8982 15.5638ZM51.6782 30.2598H53.2842V33.4938C53.2842 34.0438 53.4822 34.1538 54.5822 34.1538C55.0662 34.1538 57.6182 34.1538 58.3002 34.1538C59.2022 34.1538 59.3562 33.8458 59.4662 31.6678C59.7962 31.9318 60.4782 32.1738 60.9182 32.2618C60.7202 34.9458 60.2362 35.5838 58.4322 35.5838C57.9702 35.5838 54.8902 35.5838 54.4502 35.5838C52.2062 35.5838 51.6782 35.1218 51.6782 33.5158V30.2598ZM53.1742 29.3358L54.2082 28.2798C55.6602 28.8298 57.3762 29.7758 58.2342 30.5898L57.1562 31.7558C56.3422 30.9418 54.6262 29.9298 53.1742 29.3358ZM60.7202 30.5458L62.0622 29.7758C63.6242 31.0518 65.3842 32.8998 66.1542 34.2198L64.6802 35.0998C63.9542 33.7798 62.2602 31.8878 60.7202 30.5458ZM49.0162 30.0178L50.5122 30.5458C49.9182 32.3278 49.0162 34.0878 47.3222 35.1438L45.9582 34.1538C47.5202 33.2518 48.5102 31.6458 49.0162 30.0178ZM58.4982 17.3018H58.8502L59.1142 17.2138L60.2582 17.9398C59.5322 19.3038 58.3442 20.9318 57.4202 21.9438C57.1122 21.7018 56.5402 21.3498 56.1662 21.1738C57.0242 20.2278 58.0362 18.6658 58.4982 17.6098V17.3018ZM68.1562 19.4578H78.7602V20.9978H68.1562V19.4578ZM72.7542 15.6298H74.3822V33.9778C74.3822 34.9458 74.1402 35.3638 73.5242 35.6278C72.9302 35.8698 71.9842 35.8918 70.3562 35.8918C70.2902 35.4958 70.0702 34.8578 69.8502 34.4398C70.9722 34.4838 71.9842 34.4618 72.2922 34.4398C72.6222 34.4178 72.7542 34.3298 72.7542 33.9998V15.6298ZM67.8042 31.0298C68.9042 30.3258 70.5542 29.1378 72.1602 27.9278L72.7322 29.2478C71.3242 30.3478 69.8282 31.4918 68.5742 32.4158L67.8042 31.0298ZM68.6182 23.0218L69.8942 22.4938C70.6642 23.6598 71.4562 25.2438 71.7642 26.2338L70.4002 26.8718C70.1362 25.8598 69.3662 24.2318 68.6182 23.0218ZM76.9562 22.2078L78.4522 22.8238C77.7702 24.1658 76.9562 25.7498 76.2962 26.7618L75.1522 26.2338C75.7682 25.1558 76.5602 23.4178 76.9562 22.2078ZM75.3502 16.5098L76.5162 15.7838C77.3962 16.5098 78.4302 17.5658 78.8922 18.3358L77.6822 19.1498C77.2422 18.3798 76.2302 17.2798 75.3502 16.5098ZM73.8762 28.6098L74.9102 27.6198C76.2962 28.6978 78.0122 30.2598 78.8262 31.2498L77.7482 32.4158C76.9342 31.3598 75.2402 29.7318 73.8762 28.6098ZM80.4982 19.8978H88.1542V21.4378H80.4982V19.8978ZM81.0922 15.6298L82.7642 15.8718C82.1482 20.1178 81.0482 24.0778 79.2442 26.6738C78.9802 26.3658 78.3422 25.7718 77.9462 25.4858C79.6182 23.1538 80.5642 19.4798 81.0922 15.6298ZM81.3562 21.3058C82.4562 27.0258 84.7002 32.1958 88.5062 34.4398C88.1322 34.7478 87.5602 35.4298 87.2742 35.8918C83.3582 33.2518 81.1802 27.8618 79.9922 21.5698L81.3562 21.3058ZM85.6462 20.0078L87.1202 20.7558C86.1302 28.1258 83.4682 33.6698 77.7262 35.9358C77.4622 35.4738 76.9342 34.8578 76.4942 34.4838C82.1922 32.5038 84.7222 27.2678 85.6462 20.0078ZM93.1702 17.9398V21.3498H97.2402V17.9398H93.1702ZM91.6522 16.5978H98.8242V22.6918H91.6522V16.5978ZM102.762 17.9398V21.3498H106.854V17.9398H102.762ZM101.244 16.5978H108.438V22.6918H101.244V16.5978ZM90.1562 24.3638H109.89V25.8378H90.1562V24.3638ZM92.7522 33.6918H98.0982V35.0998H92.7522V33.6918ZM101.794 33.6918H107.184V35.0998H101.794V33.6918ZM102.784 24.7598C104.28 26.7838 107.404 28.4998 110.528 29.2258C110.154 29.5558 109.714 30.1498 109.472 30.5678C106.238 29.6438 103.048 27.7298 101.288 25.3538L102.784 24.7598ZM91.9822 28.7418H98.9562V35.8478H97.4382V30.1498H93.4562V35.9358H91.9822V28.7418ZM101.024 28.7418H108.042V35.8478H106.502V30.1498H102.498V35.9358H101.024V28.7418ZM98.9342 22.0758L100.54 22.6038C98.7802 26.3878 95.2162 28.9618 90.6182 30.5898C90.4202 30.2378 89.9142 29.6218 89.5842 29.3358C94.0062 27.8398 97.4602 25.4638 98.9342 22.0758Z" fill="black"/>
<path d="M29.6518 12C26.9336 12 24.3247 13.2485 22.622 15.1906C20.9192 13.2485 18.3103 12 15.5921 12C10.7805 12 7 15.7146 7 20.4774C7 26.2883 12.3115 31.051 20.3568 38.2491L22.622 40.2683L24.8871 38.2491C32.9324 31.051 38.2439 26.2883 38.2439 20.4774C38.2439 15.7146 34.4634 12 29.6518 12ZM22.622 35.1202V28.9548H17.9354L22.622 18.1654V24.3308H27.3085" fill="black"/>
</svg>
