<svg width="123" height="52" viewBox="0 0 123 52" fill="none" xmlns="http://www.w3.org/2000/svg">
<rect width="121" height="52" rx="8" fill="#FFEB37"/>
<path d="M62.5462 15.6738L63.7782 17.0158C59.7962 18.1818 53.2842 18.7758 47.9382 18.9958C47.8942 18.5778 47.6962 17.9178 47.5422 17.5438C52.7782 17.3018 59.2022 16.7078 62.5462 15.6738ZM47.5642 21.8778H64.7242V23.4618H47.5642V21.8778ZM46.0902 27.0478H65.9562V28.6538H46.0902V27.0478ZM55.1762 18.0058H56.8922V33.5818C56.8922 34.7478 56.5402 35.2538 55.7042 35.5178C54.8682 35.7818 53.4382 35.8258 51.1062 35.8038C50.9962 35.3418 50.6882 34.5938 50.4242 34.1538C52.2502 34.2198 54.0102 34.1978 54.4942 34.1758C55.0002 34.1758 55.1762 34.0218 55.1762 33.5598V18.0058ZM76.6702 19.8318H87.0542V21.3938H76.6702V19.8318ZM75.8562 25.5958H87.7802V27.1798H75.8562V25.5958ZM82.4562 26.1678C83.3802 29.8418 85.3602 33.0098 88.2642 34.4398C87.8902 34.7698 87.3842 35.4078 87.1202 35.8478C84.0622 34.0878 82.0822 30.6558 81.0262 26.4758L82.4562 26.1678ZM80.7842 15.6518H82.4342V21.8998C82.4342 26.7178 81.7742 32.2398 75.5482 35.9358C75.3282 35.5618 74.7562 34.9458 74.3822 34.6378C80.2122 31.2278 80.7842 26.2338 80.7842 21.8998V15.6518ZM67.9582 27.2898C69.7622 26.8498 72.4682 26.0798 75.0202 25.3538L75.2182 26.8718C72.8202 27.5758 70.2902 28.3238 68.3102 28.8958L67.9582 27.2898ZM68.2222 20.0738H75.1522V21.6358H68.2222V20.0738ZM70.9942 15.6518H72.6002V33.8018C72.6002 34.7038 72.4022 35.1658 71.8302 35.4078C71.2582 35.6718 70.3782 35.7158 68.9482 35.7158C68.8822 35.2978 68.6622 34.6158 68.4642 34.1758C69.4322 34.2198 70.3342 34.1978 70.5762 34.1978C70.8842 34.1978 70.9942 34.0878 70.9942 33.8018V15.6518ZM98.6042 27.2678H108.79V28.6978H98.6042V27.2678ZM99.3962 16.2018L100.782 15.7398C101.354 16.7298 101.948 18.0498 102.146 18.8638L100.716 19.4358C100.518 18.5778 99.9682 17.2358 99.3962 16.2018ZM106.656 15.6518L108.372 16.1798C107.778 17.3018 107.118 18.5338 106.59 19.3478L105.248 18.8638C105.732 18.0058 106.37 16.5978 106.656 15.6518ZM102.85 19.7218H104.39V35.8698H102.85V19.7218ZM98.6042 23.3958H100.188C99.8582 25.3978 99.3962 27.9058 99.0222 29.4898L97.4822 29.3138C97.8782 27.7518 98.3402 25.2878 98.6042 23.3958ZM108.306 27.2678H109.868C109.868 27.2678 109.846 27.7078 109.824 27.9278C109.626 31.5138 109.45 32.9878 108.966 33.5158C108.636 33.8678 108.328 33.9998 107.822 34.0658C107.36 34.1098 106.524 34.1098 105.666 34.0658C105.644 33.6038 105.49 32.9878 105.27 32.5918C106.062 32.6578 106.766 32.6798 107.03 32.6798C107.338 32.6798 107.536 32.6578 107.646 32.4818C107.954 32.1298 108.13 30.8978 108.306 27.4878V27.2678ZM102.762 27.9718L104.06 28.4558C102.608 31.0958 99.9902 33.6258 97.5262 34.9238C97.2622 34.5498 96.8002 33.9558 96.4262 33.6478C98.8462 32.5698 101.42 30.2598 102.762 27.9718ZM99.3742 23.3958H107.646V20.7338H98.0542V19.2598H109.208V24.8698H99.3742V23.3958ZM90.1342 20.4038H97.5702V21.9658H90.1342V20.4038ZM93.3902 15.6298H94.9302V35.8478H93.3902V15.6298ZM93.3462 21.3278L94.3802 21.6798C93.6762 25.1778 92.1582 29.5118 90.5522 31.7118C90.3762 31.2718 89.9582 30.6558 89.6942 30.2818C91.1902 28.3018 92.7082 24.4958 93.3462 21.3278ZM94.8202 23.2418C95.3262 23.8358 97.1742 26.4538 97.6142 27.0918L96.6462 28.3238C96.1402 27.2458 94.6442 24.8038 94.0502 23.9678L94.8202 23.2418Z" fill="black"/>
<path d="M21.4481 9C20.0721 9 18.8312 10.3983 18.8312 12.2971C18.8312 14.1993 20.0721 15.5942 21.4481 15.5942C22.824 15.5942 24.0649 14.1993 24.0649 12.2971C24.0649 10.3983 22.824 9 21.4481 9ZM33.9162 13.058L12.3084 34.7005H6V44H17.0838L38.6942 22.3575H45V13.058H33.9162ZM19.6078 16.6172C19.4896 16.8116 19.3799 17.0229 19.2701 17.2512C18.6032 18.6969 18.1558 20.785 18.1558 23.1014C18.1558 24.2681 18.274 25.3841 18.4682 26.3816L24.5208 20.32C24.3266 19.1365 24.0143 18.0882 23.626 17.2512C23.5162 17.0229 23.4065 16.8116 23.2883 16.6172C22.7396 16.9384 22.1149 17.1159 21.4481 17.1159C20.7812 17.1159 20.1565 16.9384 19.6078 16.6172Z" fill="black"/>
</svg>
