<svg width="123" height="52" viewBox="0 0 123 52" fill="none" xmlns="http://www.w3.org/2000/svg">
<rect width="121" height="52" rx="8" fill="#FFEB37"/>
<path d="M50.4022 24.3198V32.1078H48.8182V25.8598H46.0242V24.3198H50.4022ZM50.4022 31.4478C51.4362 33.0758 53.3722 33.8238 55.9902 33.9118C58.4322 34.0218 63.5142 33.9558 66.1762 33.7798C65.9782 34.1538 65.7142 34.9238 65.6482 35.4078C63.1622 35.5178 58.4542 35.5618 55.9902 35.4518C53.0862 35.3418 51.0842 34.5718 49.7202 32.8338C48.7522 33.7798 47.7402 34.7258 46.6402 35.6938L45.7822 34.0878C46.7502 33.3838 47.9382 32.3938 48.9722 31.4478H50.4022ZM46.2222 17.1038L47.4762 16.2018C48.8402 17.1918 50.3802 18.7098 51.0622 19.7878L49.6982 20.8218C49.0822 19.7218 47.5642 18.1818 46.2222 17.1038ZM60.5222 24.7818L61.5342 23.8358C63.0522 24.6718 64.8342 25.9698 65.7142 26.9378L64.6142 27.9938C63.8002 27.0258 61.9962 25.6838 60.5222 24.7818ZM51.6122 18.0938L52.9322 17.5878C53.9002 18.9518 54.8242 20.7778 55.1322 22.0098L53.7022 22.5818C53.4382 21.3498 52.5582 19.4798 51.6122 18.0938ZM59.2462 15.6518H60.7202V29.7538C60.7202 30.5018 60.8522 30.6558 61.5122 30.6558C61.8422 30.6558 63.4922 30.6558 63.8882 30.6558C64.4162 30.6558 64.5042 30.2818 64.5702 28.7418C64.9002 29.0058 65.4722 29.2478 65.9342 29.3358C65.7582 31.4038 65.3402 32.0858 63.9982 32.0858C63.6462 32.0858 61.6662 32.0858 61.3142 32.0858C59.6642 32.0858 59.2462 31.6018 59.2462 29.7318V15.6518ZM55.7922 15.6738H57.2882V23.0658C57.2882 26.9158 56.7382 30.2818 52.6682 32.6138C52.4262 32.2618 51.9202 31.7118 51.5682 31.4918C55.3302 29.3798 55.7922 26.4098 55.7922 23.0438V15.6738ZM63.5802 17.5438L65.2302 18.1158C64.3502 19.6338 63.2502 21.4598 62.3702 22.6258L61.1822 22.0978C62.0182 20.8878 63.0522 18.9078 63.5802 17.5438ZM50.9962 26.9378C52.2282 26.2998 54.0542 25.2438 55.8802 24.2098L56.3202 25.4858C54.7582 26.4978 53.1522 27.5098 51.7882 28.3238L50.9962 26.9378ZM71.5882 19.9198H86.8342V21.5258H71.5882V19.9198ZM70.6202 26.3658H86.0422V27.9498H70.6202V26.3658ZM68.2222 33.5598H87.8682V35.1658H68.2222V33.5598ZM77.1982 15.6518H78.8922V34.3738H77.1982V15.6518ZM72.2482 16.0038L73.9422 16.3778C72.9742 19.7878 71.4342 23.0438 69.6742 25.1558C69.3442 24.8698 68.5962 24.3858 68.1782 24.1658C69.9822 22.2078 71.4122 19.1498 72.2482 16.0038ZM91.7842 17.9398H108.284V35.2318H106.502V19.6118H93.5002V35.3418H91.7842V17.9398ZM92.5542 31.7558H107.734V33.4498H92.5542V31.7558Z" fill="black"/>
<path d="M24.8961 20.6676C23.5124 20.6676 22.3817 19.522 22.3817 18.1383C22.3817 17.4714 22.6466 16.8319 23.1182 16.3604C23.5897 15.8888 24.2292 15.6239 24.8961 15.6239C26.2946 15.6239 27.4254 16.7546 27.4254 18.1383C27.4254 19.522 26.2946 20.6676 24.8961 20.6676ZM20.3732 38.1641L11.5505 36.4085L12.0563 33.8793L18.2307 35.1439L20.2393 24.9376L17.9778 25.8302V30.0854H15.4634V24.1937L22.0098 21.4115L23.0066 21.2924C23.8993 21.2924 24.6432 21.7983 25.1341 22.5571L26.4137 24.5656C27.4254 26.3659 29.4339 27.5859 31.8293 27.5859V30.0854C29.0619 30.0854 26.5327 28.8505 24.8961 26.961L24.1522 30.74L26.7856 33.2544V42.7317H24.2712V35.1439L21.6229 32.6295L20.3732 38.1641ZM36.2927 42.7317H33.3171V12.9756H13.9756V32.4807L11 31.8559V10H36.2927V42.7317ZM13.9756 42.7317H11V37.941L13.9756 38.5659V42.7317Z" fill="black"/>
</svg>
