<svg width="124" height="52" viewBox="0 0 124 52" fill="none" xmlns="http://www.w3.org/2000/svg">
<rect width="121" height="52" rx="8" fill="#FFEB37"/>
<path d="M48.0482 16.4438H53.1522V17.9838H48.0482V16.4438ZM48.0482 21.5918H53.1962V23.1318H48.0482V21.5918ZM56.6282 23.9898H64.6142V25.5298H56.6282V23.9898ZM48.0042 26.8718H53.1522V28.4338H48.0042V26.8718ZM47.3662 16.4438H48.8842V24.3638C48.8842 27.7958 48.6642 32.6578 47.1022 35.9138C46.7942 35.6498 46.1342 35.2758 45.7382 35.1218C47.2562 32.0198 47.3662 27.5978 47.3662 24.3638V16.4438ZM52.2282 16.4438H53.7682V33.9118C53.7682 34.7918 53.5702 35.2978 53.0202 35.5838C52.4482 35.8478 51.5682 35.8918 50.0722 35.8698C50.0062 35.4738 49.8082 34.7258 49.5882 34.3078C50.6222 34.3298 51.5462 34.3298 51.8102 34.3078C52.1182 34.2858 52.2282 34.1978 52.2282 33.8898V16.4438ZM63.4702 16.5098H65.0542V20.7778C65.0542 21.5918 64.8782 22.0318 64.1742 22.2738C63.4922 22.5158 62.3922 22.5158 60.7202 22.5158C60.6322 22.0538 60.3902 21.5038 60.1922 21.1078C61.5122 21.1298 62.6782 21.1298 63.0302 21.1078C63.3822 21.1078 63.4702 21.0198 63.4702 20.7558V16.5098ZM64.1742 23.9898H64.4602L64.7242 23.9458L65.6922 24.2758C64.5922 29.9078 61.7762 33.7138 58.3442 35.7598C58.1462 35.3858 57.7062 34.8138 57.3762 34.5278C60.5002 32.8778 63.2282 29.1158 64.1742 24.2978V23.9898ZM59.0922 24.9358C60.3462 29.2038 62.8982 32.9658 66.3522 34.6378C65.9782 34.9458 65.5162 35.5178 65.2742 35.8918C61.7102 33.9558 59.1582 29.9738 57.7722 25.2878L59.0922 24.9358ZM55.7042 16.5098H63.9102V18.0498H57.2662V35.8698H55.7042V16.5098ZM68.2662 16.7298H75.7682V18.1598H68.2662V16.7298ZM76.7582 27.9718H86.3062V29.4018H76.7582V27.9718ZM68.0242 23.3738H76.2962V24.8478H68.0242V23.3738ZM71.8742 23.9678H73.4582V33.9558C73.4582 34.8138 73.3042 35.2538 72.7102 35.5398C72.1602 35.7818 71.3022 35.8038 69.9382 35.8038C69.8942 35.3858 69.6742 34.7038 69.4542 34.2638C70.4002 34.2858 71.2802 34.2858 71.5442 34.2858C71.7862 34.2638 71.8742 34.1978 71.8742 33.9558V23.9678ZM85.7342 27.9718H87.4282C87.4282 27.9718 87.4062 28.4558 87.3622 28.6978C86.9442 32.8338 86.5482 34.5058 85.9102 35.1658C85.5142 35.5618 85.1182 35.6938 84.5242 35.7378C84.0182 35.7818 83.0502 35.7818 82.0602 35.7158C82.0162 35.2758 81.8622 34.6158 81.6202 34.1758C82.5662 34.2638 83.4462 34.2858 83.7982 34.2858C84.1502 34.2858 84.3482 34.2638 84.5462 34.0658C85.0082 33.6258 85.4042 32.0858 85.7342 28.2358V27.9718ZM80.8722 25.7938H82.5222C82.1042 30.2378 81.0262 33.9558 76.0542 35.8918C75.8562 35.4958 75.4162 34.9018 75.0642 34.6158C79.6402 32.9218 80.4982 29.5998 80.8722 25.7938ZM69.0362 20.4038L70.0702 19.3478C71.9182 20.1178 74.2062 21.4158 75.3502 22.4278L74.2502 23.6378C73.1502 22.6258 70.9062 21.2398 69.0362 20.4038ZM75.8562 23.3738H76.0982L76.3402 23.3078L77.3522 23.6598C76.8902 25.5078 76.2302 27.6198 75.5482 28.9838L74.3822 28.4118C74.9542 27.2018 75.5042 25.2438 75.8562 23.6598V23.3738ZM84.6782 18.6218L86.3722 18.9078C84.8982 22.8898 81.5982 25.0898 77.4402 26.3878C77.2422 26.0358 76.7362 25.3538 76.4062 25.0018C80.4102 23.9898 83.4902 22.0318 84.6782 18.6218ZM79.9702 15.6298L81.5322 16.0478C80.4982 18.4018 78.8042 20.6018 77.1102 22.0098C76.8242 21.7238 76.1642 21.2618 75.7462 21.0418C77.4842 19.7438 79.0902 17.7418 79.9702 15.6298ZM79.5742 19.0838C81.1582 22.0098 84.4362 24.2098 88.3522 25.0678C88.0002 25.3978 87.5162 26.0358 87.2962 26.4758C83.2702 25.3978 79.9702 22.9338 78.2102 19.5458L79.5742 19.0838ZM71.6762 23.8578L72.7982 24.2758C71.9622 27.1798 70.3782 30.5898 68.6622 32.3058C68.4862 31.8438 68.0902 31.1618 67.8042 30.7658C69.3882 29.2698 70.9502 26.3878 71.6762 23.8578ZM79.4862 17.9618H87.8902V19.3698H78.8042L79.4862 17.9618ZM75.3722 16.7298H75.7242L75.9882 16.6638L77.0662 17.3458C76.0542 18.8858 74.3382 20.5578 72.8202 21.5698C72.5342 21.3058 72.0282 20.9538 71.6982 20.7558C73.1062 19.8318 74.6462 18.2258 75.3722 17.0378V16.7298ZM93.7422 33.2958H106.128V34.9018H93.7422V33.2958ZM92.9942 26.4978H107.008V35.8258H105.27V28.0818H94.6662V35.8698H92.9942V26.4978ZM97.4162 15.5638L99.2202 16.2018C97.9002 18.7538 96.0522 21.7898 94.5782 23.7258L93.1482 23.1098C94.6002 21.1518 96.4042 17.9178 97.4162 15.5638ZM102.696 19.1278L103.994 18.1598C106.238 19.9418 108.834 22.5378 109.978 24.3638L108.57 25.4638C107.47 23.6378 104.962 20.9758 102.696 19.1278ZM90.3982 22.3838C94.5782 22.2738 101.354 21.9878 107.624 21.7018L107.536 23.2858C101.354 23.6158 94.7102 23.9018 90.5082 24.0778L90.3982 22.3838Z" fill="black"/>
<path d="M23.5 9C20.2366 9 17.0465 9.96771 14.3331 11.7808C11.6197 13.5938 9.50484 16.1707 8.25599 19.1857C7.00715 22.2007 6.68039 25.5183 7.31705 28.719C7.95371 31.9197 9.52518 34.8597 11.8327 37.1673C14.1403 39.4748 17.0803 41.0463 20.281 41.683C23.4817 42.3196 26.7993 41.9929 29.8143 40.744C32.8293 39.4952 35.4062 37.3803 37.2193 34.6669C39.0323 31.9535 40 28.7634 40 25.5C40 21.1239 38.2616 16.9271 35.1673 13.8327C32.0729 10.7384 27.8761 9 23.5 9ZM23.5 16.0714C23.8497 16.0714 24.1915 16.1751 24.4822 16.3694C24.7729 16.5636 24.9995 16.8397 25.1333 17.1628C25.2671 17.4858 25.3021 17.8412 25.2339 18.1842C25.1657 18.5271 24.9973 18.8421 24.7501 19.0893C24.5028 19.3366 24.1878 19.505 23.8449 19.5732C23.502 19.6414 23.1465 19.6064 22.8235 19.4726C22.5004 19.3388 22.2243 19.1122 22.0301 18.8215C21.8358 18.5307 21.7321 18.1889 21.7321 17.8393C21.7321 17.3704 21.9184 16.9208 22.2499 16.5892C22.5815 16.2577 23.0311 16.0714 23.5 16.0714ZM28.2143 35.0759H18.7857V32.4241H22.1741V25.6473H19.9643V22.9955H24.8259V32.4241H28.2143V35.0759Z" fill="black"/>
</svg>
