<svg width="123" height="52" viewBox="0 0 123 52" fill="none" xmlns="http://www.w3.org/2000/svg">
<rect width="121" height="52" rx="8" fill="#FFEB37"/>
<path d="M62.3422 15.6298H63.7502V19.2598H62.3422V15.6298ZM62.9142 16.5978H67.5122V17.6978H62.9142V16.5978ZM61.1542 18.7758H66.1922V19.8758H60.2522L61.1542 18.7758ZM65.7962 18.7758H66.0822L66.3462 18.7318L67.2262 19.2158C65.5762 22.5158 61.7922 24.4738 58.1402 25.4198C57.9642 25.0678 57.6342 24.5838 57.3702 24.2978C60.7582 23.5498 64.4322 21.7238 65.7962 19.0178V18.7758ZM59.3282 20.9318L60.1862 20.1838C61.3082 20.6678 62.7162 21.4378 63.4422 22.0538L62.5622 22.8678C61.8802 22.2958 60.4722 21.4598 59.3282 20.9318ZM60.6702 18.4458L61.9242 18.8198C61.0002 20.0518 59.4822 21.2398 58.0962 21.9878C57.8762 21.7678 57.3702 21.3278 57.0622 21.1298C58.4702 20.4698 59.8782 19.5018 60.6702 18.4458ZM68.4142 16.5978H75.2562V17.8078H68.4142V16.5978ZM74.8602 16.5978H75.1682L75.4102 16.5318L76.3562 16.9498C75.1022 20.2938 72.1542 22.4718 69.1402 23.5278C68.9642 23.1758 68.5902 22.6258 68.3042 22.3398C71.0762 21.5038 73.8262 19.5018 74.8602 16.8178V16.5978ZM68.3482 19.5458L69.2942 18.6218C72.0222 19.8538 75.3882 21.8558 77.0822 23.3298L76.0702 24.4078C74.4422 22.9118 71.0982 20.8438 68.3482 19.5458ZM67.4022 23.4618C65.4222 25.2218 61.7482 27.0478 58.0962 28.1258C57.9422 27.7738 57.6342 27.2678 57.3702 26.9598C61.0882 25.9698 64.7622 24.1878 66.6542 22.3618H67.9962C70.5042 24.4078 74.3542 25.9918 77.7202 26.6958C77.4122 27.0478 77.0822 27.5978 76.9062 27.9498C73.6722 27.1358 69.7122 25.3758 67.4022 23.4618ZM62.4522 26.9598H73.6062V32.0198H62.4522V31.0078H72.0442V27.9718H62.4522V26.9598ZM61.5942 26.9598H63.1562V34.6378L61.5942 34.7698V26.9598ZM74.4422 31.0298L75.6522 31.7998C74.2662 32.6798 72.5062 33.6038 71.1202 34.1758L70.2182 33.5158C71.5822 32.8998 73.4082 31.8218 74.4422 31.0298ZM67.6882 31.4038C69.3162 33.3838 73.0342 34.3738 77.3462 34.6598C77.0382 34.9458 76.6862 35.4958 76.5102 35.8918C72.0442 35.4738 68.3042 34.2198 66.4562 31.7778L67.6882 31.4038ZM62.4522 28.9838H72.5722V29.9078H62.4522V28.9838ZM64.6082 25.1778H70.3502V26.1898H64.6082V25.1778ZM59.1082 34.3078C61.4402 34.1098 65.0482 33.7798 68.5462 33.4058V34.6598C65.2462 35.0118 61.7482 35.3858 59.3062 35.6278L59.1082 34.3078ZM83.0222 19.8758H90.1942V21.0198H83.0222V19.8758ZM84.5622 22.2518H88.5882V23.1978H84.5622V22.2518ZM84.5622 24.4958H88.5882V25.4638H84.5622V24.4958ZM82.8682 29.2478H87.1802V30.3038H82.8682V29.2478ZM82.9342 31.5138H87.1142V32.5698H82.9342V31.5138ZM90.3482 20.5578H99.1482V21.7678H90.3482V20.5578ZM89.9742 28.3018H99.5662V29.4898H89.9742V28.3018ZM93.9122 19.2378H95.3202V23.7038H93.9122V19.2378ZM84.0562 20.4478H85.3102V27.4218H84.0562V20.4478ZM84.4522 29.6878H85.5742V34.4178H84.4522V29.6878ZM87.7962 20.4478H89.0942V35.9138H87.7962V20.4478ZM96.4202 24.0558V26.1898H97.8722V24.0558H96.4202ZM93.9782 24.0558V26.1898H95.4082V24.0558H93.9782ZM91.6462 24.0558V26.1898H92.9882V24.0558H91.6462ZM90.5242 22.9998H98.9942V27.2458H90.5242V22.9998ZM82.6922 27.0698C84.2762 27.0038 86.4542 26.8498 88.7202 26.6958L88.6982 27.8178C86.5862 28.0158 84.4962 28.1918 82.8242 28.3018L82.6922 27.0698ZM82.3622 34.1978C83.6602 34.0878 85.3762 33.8898 87.2242 33.6918L87.2462 34.7478C85.5522 34.9678 83.9242 35.1878 82.5162 35.3418L82.3622 34.1978ZM92.5702 31.1398H93.8242V34.1978C93.8242 34.5718 93.8902 34.6158 94.3082 34.6158C94.4842 34.6158 95.4302 34.6158 95.6942 34.6158C96.0902 34.6158 96.1562 34.4838 96.2002 33.1418C96.4642 33.3398 96.9482 33.5158 97.3222 33.6038C97.1902 35.3418 96.8382 35.7598 95.8702 35.7598C95.6062 35.7598 94.3962 35.7598 94.1542 35.7598C92.8782 35.7598 92.5702 35.4738 92.5702 34.1978V31.1398ZM90.6122 31.2718L91.7122 31.6018C91.5802 32.8558 91.2942 34.2858 90.6782 35.1438L89.6002 34.5938C90.1502 33.8018 90.4802 32.4598 90.6122 31.2718ZM96.8382 31.5138L97.9822 31.0958C98.7962 32.1958 99.5442 33.6478 99.7642 34.6598L98.5762 35.1218C98.3782 34.1318 97.6522 32.6358 96.8382 31.5138ZM92.9442 30.0178L93.7362 29.2258C94.7262 29.6878 95.8702 30.4138 96.4422 30.9858L95.5842 31.8658C95.0562 31.2938 93.9122 30.5018 92.9442 30.0178ZM89.2922 15.6518H90.9862V18.1158H89.2922V15.6518ZM81.9002 17.2578H99.3682V18.5998H81.9002V17.2578ZM80.8222 17.2578H82.3182V24.1878C82.3182 27.5978 82.0762 32.5918 80.4922 35.9358C80.2282 35.6498 79.5682 35.1878 79.2162 35.0338C80.7122 31.8658 80.8222 27.3998 80.8222 24.2098V17.2578Z" fill="black"/>
<path d="M32.5236 42.5C32.088 42.5 31.7226 42.3536 31.4274 42.0608C31.1322 41.768 30.9852 41.4061 30.9862 40.975V30.3H29.4488C28.6032 30.3 27.8791 30.0011 27.2764 29.4033C26.6738 28.8055 26.373 28.0877 26.374 27.25V19.625C26.374 17.5154 27.1237 15.7169 28.6232 14.2296C30.1227 12.7422 31.9353 11.999 34.061 12V40.975C34.061 41.4071 33.9134 41.7695 33.6182 42.0623C33.323 42.3551 32.9582 42.501 32.5236 42.5ZM17.1496 42.5C16.714 42.5 16.3486 42.3536 16.0534 42.0608C15.7583 41.768 15.6112 41.4061 15.6122 40.975V28.5462C14.3054 28.1904 13.2098 27.4787 12.3252 26.4112C11.4407 25.3438 10.999 24.0983 11 22.675V13.525C11 13.0929 11.1476 12.7305 11.4428 12.4377C11.738 12.1449 12.1028 11.999 12.5374 12C12.973 12 13.3384 12.1464 13.6336 12.4392C13.9287 12.732 14.0758 13.0939 14.0748 13.525V22.675H15.6122V13.525C15.6122 13.0929 15.7598 12.7305 16.055 12.4377C16.3501 12.1449 16.715 11.999 17.1496 12C17.5852 12 17.9506 12.1464 18.2458 12.4392C18.5409 12.732 18.688 13.0939 18.687 13.525V22.675H20.2244V13.525C20.2244 13.0929 20.372 12.7305 20.6672 12.4377C20.9623 12.1449 21.3272 11.999 21.7618 12C22.1974 12 22.5628 12.1464 22.858 12.4392C23.1531 12.732 23.3002 13.0939 23.2992 13.525V22.675C23.2992 24.0983 22.8569 25.3438 21.9724 26.4112C21.0879 27.4787 19.9928 28.1904 18.687 28.5462V40.975C18.687 41.4071 18.5394 41.7695 18.2442 42.0623C17.949 42.3551 17.5842 42.501 17.1496 42.5Z" fill="black"/>
</svg>
