<svg width="123" height="52" viewBox="0 0 123 52" fill="none" xmlns="http://www.w3.org/2000/svg">
<rect width="121" height="52" rx="8" fill="#FFEB37"/>
<path d="M13.5599 43.2195V30.3872H11V20.9768C11 20.0358 11.3345 19.2299 12.0035 18.5592C12.6725 17.8885 13.4757 17.5537 14.4132 17.5549H19.533C20.4716 17.5549 21.2754 17.8902 21.9444 18.5609C22.6134 19.2316 22.9473 20.0369 22.9462 20.9768V30.3872H20.3863V43.2195H13.5599ZM16.9731 15.8439C16.0345 15.8439 15.2307 15.5086 14.5617 14.8379C13.8927 14.1671 13.5588 13.3619 13.5599 12.422C13.5599 11.4809 13.8944 10.675 14.5634 10.0043C15.2324 9.33364 16.0356 8.99886 16.9731 9C17.9117 9 18.7155 9.33535 19.3845 10.0061C20.0535 10.6768 20.3874 11.4821 20.3863 12.422C20.3863 13.363 20.0518 14.1689 19.3828 14.8396C18.7138 15.5103 17.9106 15.845 16.9731 15.8439ZM29.7726 43.2195V32.9537H24.6528L29.0046 19.8647C29.2322 19.1233 29.652 18.553 30.2641 18.1537C30.8762 17.7545 31.5657 17.5549 32.3325 17.5549C33.1005 17.5549 33.7905 17.7545 34.4026 18.1537C35.0147 18.553 35.434 19.1233 35.6604 19.8647L40.0122 32.9537H34.8924V43.2195H29.7726ZM32.3325 15.8439C31.3939 15.8439 30.5901 15.5086 29.9211 14.8379C29.2521 14.1671 28.9182 13.3619 28.9193 12.422C28.9193 11.4809 29.2538 10.675 29.9228 10.0043C30.5918 9.33364 31.395 8.99886 32.3325 9C33.2711 9 34.0749 9.33535 34.7439 10.0061C35.4129 10.6768 35.7468 11.4821 35.7457 12.422C35.7457 13.363 35.4112 14.1689 34.7422 14.8396C34.0732 15.5103 33.27 15.845 32.3325 15.8439Z" fill="black"/>
<path d="M55.7042 16.1798H57.3762V32.5038C57.3762 33.7358 57.5962 33.9998 58.8282 33.9998C59.4222 33.9998 62.4142 33.9998 63.1622 33.9998C64.3722 33.9998 64.5482 33.1858 64.7022 29.9738C65.1202 30.2818 65.8022 30.5898 66.2862 30.6998C66.0222 34.3078 65.5382 35.5618 63.2502 35.5618C62.6782 35.5618 59.2242 35.5618 58.7182 35.5618C56.4082 35.5618 55.7042 34.9018 55.7042 32.4818V16.1798ZM63.9542 19.8318L65.1642 21.2398C62.9422 23.0658 59.7082 24.8478 56.8042 26.3658C56.6942 25.9918 56.3642 25.4198 56.1222 25.0678C58.9382 23.5938 62.0842 21.5478 63.9542 19.8318ZM51.8762 15.9818L53.4822 16.5098C51.8322 20.3818 49.1922 24.1438 46.4642 26.5858C46.2882 26.1898 45.7822 25.3318 45.4522 24.9358C48.0042 22.8018 50.4242 19.4578 51.8762 15.9818ZM49.3682 21.7238L50.9742 20.1178L50.9962 20.1398V35.8478H49.3682V21.7238ZM80.2342 15.7398L81.8402 15.9818C80.6962 20.4478 78.8922 26.5638 77.6382 30.2158L76.1422 29.5778C77.3962 26.1238 79.1782 20.0298 80.2342 15.7398ZM84.4142 21.8118L86.1082 21.9218C85.2942 29.9518 82.7862 33.7798 76.0982 35.9138C75.9442 35.5398 75.4822 34.7918 75.1742 34.4398C81.5542 32.7238 83.7982 29.1378 84.4142 21.8118ZM77.1322 28.6098L78.2322 27.5538C81.9282 29.3798 86.1742 32.3058 88.1542 34.7258L86.9002 35.9358C85.0302 33.5818 80.8502 30.5018 77.1322 28.6098ZM75.3282 21.0858H88.1542V22.6258H75.3282V21.0858ZM67.9142 26.6958H73.7002V28.1918H67.9142V26.6958ZM73.2162 15.6518H74.7782V35.8698H73.2162V15.6518ZM69.2122 27.2458H70.7082V28.6978C70.7082 30.6118 70.4662 33.7138 69.1022 35.9358C68.7722 35.6718 68.1562 35.3198 67.7602 35.1658C69.0142 33.1418 69.2122 30.3698 69.2122 28.6758V27.2458ZM68.8602 16.5758H70.3782V21.8998H73.9642V23.3958H68.8602V16.5758ZM99.1102 26.8718H100.804V34.3298H99.1102V26.8718ZM92.7962 21.0418H107.36V22.4938H92.7962V21.0418ZM90.2882 33.7798H109.802V35.2538H90.2882V33.7798ZM92.3122 29.5558H107.866V31.0078H92.3122V29.5558ZM97.1962 21.8118L98.8902 22.2958C97.9882 23.8358 96.8222 25.6398 95.8982 26.7838L94.5782 26.3218C95.4582 25.1118 96.5802 23.1538 97.1962 21.8118ZM91.9162 25.7498C95.5462 25.7058 101.31 25.5298 106.744 25.3758L106.656 26.7838C101.332 27.0038 95.7002 27.1798 92.0042 27.2678L91.9162 25.7498ZM102.542 23.8138L103.73 22.9778C105.578 24.1658 107.822 25.9478 108.878 27.2238L107.602 28.1698C106.59 26.8938 104.39 25.0458 102.542 23.8138ZM99.1102 15.6518H100.804V18.3358H99.1102V15.6518ZM90.5522 17.3018H109.516V21.3718H107.844V18.8198H92.1582V21.3718H90.5522V17.3018Z" fill="black"/>
</svg>
