<svg width="33" height="13" viewBox="0 0 33 13" fill="none" xmlns="http://www.w3.org/2000/svg">
<path d="M13.8187 13V3.25001H10.1062V7.49714e-06H20.0062V3.25001H16.2937V13H13.8187ZM0 13V2.16667C0 1.55278 0.1584 1.03784 0.4752 0.62184C0.792 0.20584 1.1836 -0.00143695 1.65 7.49714e-06H6.6C7.0675 7.49714e-06 7.45965 0.208008 7.77645 0.624007C8.09325 1.04001 8.2511 1.55423 8.25 2.16667V13H5.775V9.75H2.475V13H0ZM2.475 6.5H5.775V3.25001H2.475V6.5ZM22.275 13V2.16667C22.275 1.55278 22.4334 1.03784 22.7502 0.62184C23.067 0.20584 23.4586 -0.00143695 23.925 7.49714e-06H31.35C31.8175 7.49714e-06 32.2096 0.208008 32.5264 0.624007C32.8432 1.04001 33.0011 1.55423 33 2.16667V13H30.525V3.25001H28.875V10.8333H26.4V3.25001H24.75V13H22.275Z" fill="#E2EEF8"/>
</svg>
