<svg width="30" height="39" viewBox="0 0 30 39" fill="none" xmlns="http://www.w3.org/2000/svg">
<path d="M9.90016 28.4038H8.15393V34.7941C8.15393 35.9271 9.90016 35.9271 9.90016 34.7941V28.4038ZM7.8883 28.4038H6.14282V34.7941C6.14282 35.9187 7.8883 35.9187 7.8883 34.7941V28.4038ZM9.35779 20.6499C9.35779 20.9792 9.21973 21.2951 8.97398 21.5279C8.72823 21.7608 8.39493 21.8916 8.04739 21.8916C7.69985 21.8916 7.36654 21.7608 7.12079 21.5279C6.87504 21.2951 6.73698 20.9792 6.73698 20.6499C6.73698 20.3206 6.87504 20.0047 7.12079 19.7719C7.36654 19.539 7.69985 19.4082 8.04739 19.4082C8.39493 19.4082 8.72823 19.539 8.97398 19.7719C9.21973 20.0047 9.35779 20.3206 9.35779 20.6499Z" fill="#E2EEF8"/>
<path d="M23.0635 28.4038H21.3173V34.7941C21.3173 35.9271 23.0635 35.9271 23.0635 34.7941V28.4038ZM21.0516 28.4038H19.3062V34.7941C19.3062 35.9187 21.0516 35.9187 21.0516 34.7941V28.4038ZM22.5211 20.6499C22.5211 20.9792 22.3831 21.2951 22.1373 21.5279C21.8916 21.7608 21.5583 21.8916 21.2107 21.8916C20.8632 21.8916 20.5299 21.7608 20.2841 21.5279C20.0384 21.2951 19.9003 20.9792 19.9003 20.6499C19.9003 20.3206 20.0384 20.0047 20.2841 19.7719C20.5299 19.539 20.8632 19.4082 21.2107 19.4082C21.5583 19.4082 21.8916 19.539 22.1373 19.7719C22.3831 20.0047 22.5211 20.3206 22.5211 20.6499Z" fill="#E2EEF8"/>
<path d="M16.0431 28.4038H14.2969V34.7941C14.2969 35.9271 16.0431 35.9271 16.0431 34.7941V28.4038ZM14.0312 28.4038H12.2858V34.7941C12.2858 35.9187 14.0312 35.9187 14.0312 34.7941V28.4038ZM15.5007 20.6499C15.5007 20.9792 15.3627 21.2951 15.1169 21.5279C14.8712 21.7608 14.5379 21.8916 14.1903 21.8916C13.8428 21.8916 13.5095 21.7608 13.2637 21.5279C13.018 21.2951 12.8799 20.9792 12.8799 20.6499C12.8799 20.3206 13.018 20.0047 13.2637 19.7719C13.5095 19.539 13.8428 19.4082 14.1903 19.4082C14.5379 19.4082 14.8712 19.539 15.1169 19.7719C15.3627 20.0047 15.5007 20.3206 15.5007 20.6499Z" fill="#E2EEF8"/>
<rect x="2" y="14.8775" width="24.9592" height="22.1224" rx="2" stroke="#E2EEF8" stroke-width="4"/>
<path d="M9 1C9 0.447715 8.55228 -2.41411e-08 8 0C7.44772 2.41411e-08 7 0.447715 7 1L9 1ZM7.29289 11.7071C7.68342 12.0976 8.31658 12.0976 8.70711 11.7071L15.0711 5.34315C15.4616 4.95262 15.4616 4.31946 15.0711 3.92893C14.6805 3.53841 14.0474 3.53841 13.6569 3.92893L8 9.58579L2.34315 3.92893C1.95262 3.53841 1.31946 3.53841 0.928932 3.92893C0.538408 4.31946 0.538408 4.95262 0.928932 5.34315L7.29289 11.7071ZM7 1L7 11L9 11L9 1L7 1Z" fill="#E2EEF8"/>
<path d="M21 11C21 11.5523 21.4477 12 22 12C22.5523 12 23 11.5523 23 11L21 11ZM22.7071 0.292893C22.3166 -0.0976311 21.6834 -0.0976311 21.2929 0.292893L14.9289 6.65685C14.5384 7.04738 14.5384 7.68054 14.9289 8.07107C15.3195 8.46159 15.9526 8.46159 16.3431 8.07107L22 2.41421L27.6569 8.07107C28.0474 8.46159 28.6805 8.46159 29.0711 8.07107C29.4616 7.68054 29.4616 7.04738 29.0711 6.65685L22.7071 0.292893ZM23 11L23 1L21 1L21 11L23 11Z" fill="#E2EEF8"/>
<rect x="18.4286" y="22.6735" width="5.26531" height="6.53061" rx="1" fill="#E2EEF8"/>
<rect x="11.4081" y="22.6735" width="5.26531" height="6.53061" rx="1" fill="#E2EEF8"/>
<rect x="5.26538" y="22.6735" width="5.26531" height="6.53061" rx="1" fill="#E2EEF8"/>
</svg>
