<svg width="33" height="33" viewBox="0 0 33 33" fill="none" xmlns="http://www.w3.org/2000/svg">
<path d="M13.0714 0C11.9071 0 10.8571 1.31841 10.8571 3.1087C10.8571 4.90217 11.9071 6.21739 13.0714 6.21739C14.2357 6.21739 15.2857 4.90217 15.2857 3.1087C15.2857 1.31841 14.2357 0 13.0714 0ZM23.6214 3.82609L5.33786 24.2319H0V33H9.37857L27.6643 12.5942H33V3.82609H23.6214ZM11.5143 7.18188C11.4143 7.36522 11.3214 7.56449 11.2286 7.77971C10.6643 9.14275 10.2857 11.1116 10.2857 13.2957C10.2857 14.3957 10.3857 15.4478 10.55 16.3884L15.6714 10.6732C15.5071 9.55725 15.2429 8.56884 14.9143 7.77971C14.8214 7.56449 14.7286 7.36522 14.6286 7.18188C14.1643 7.48478 13.6357 7.65217 13.0714 7.65217C12.5071 7.65217 11.9786 7.48478 11.5143 7.18188Z" fill="#E2EEF8"/>
</svg>
