<svg width="29" height="34" viewBox="0 0 29 34" fill="none" xmlns="http://www.w3.org/2000/svg">
<path d="M15.9329 11.0809C14.3465 11.0809 13.05 9.89091 13.05 8.45364C13.05 7.76094 13.3537 7.09661 13.8944 6.6068C14.4351 6.11699 15.1683 5.84182 15.9329 5.84182C17.5365 5.84182 18.8329 7.01636 18.8329 8.45364C18.8329 9.89091 17.5365 11.0809 15.9329 11.0809ZM10.7471 29.2555L0.631176 27.4318L1.21118 24.8045L8.29059 26.1182L10.5935 15.5164L8.00059 16.4436V20.8636H5.11765V14.7436L12.6235 11.8536L13.7665 11.73C14.79 11.73 15.6429 12.2555 16.2059 13.0436L17.6729 15.13C18.8329 17 21.1359 18.2673 23.8824 18.2673V20.8636C20.7094 20.8636 17.8094 19.5809 15.9329 17.6182L15.08 21.5436L18.0994 24.1555V34H15.2165V26.1182L12.18 23.5064L10.7471 29.2555ZM29 34H25.5882V3.09091H3.41176V23.3518L0 22.7027V0H29V34ZM3.41176 34H0V29.0236L3.41176 29.6727V34Z" fill="#E2EEF8"/>
</svg>
