<svg width="28" height="30" viewBox="0 0 28 30" fill="none" xmlns="http://www.w3.org/2000/svg">
<path d="M21 8.57143V11.7857C21 12.0699 20.8771 12.3424 20.6583 12.5433C20.4395 12.7443 20.1428 12.8571 19.8333 12.8571H18.6667V8.57143H9.33333V12.8571H8.16667C7.85725 12.8571 7.5605 12.7443 7.34171 12.5433C7.12292 12.3424 7 12.0699 7 11.7857V8.57143H2.33333V27.8571H25.6667V8.57143H21ZM7 6.42857C7 4.72361 7.7375 3.08848 9.05025 1.88288C10.363 0.677294 12.1435 0 14 0C15.8565 0 17.637 0.677294 18.9497 1.88288C20.2625 3.08848 21 4.72361 21 6.42857H26.8333C27.1428 6.42857 27.4395 6.54145 27.6583 6.74239C27.8771 6.94332 28 7.21584 28 7.5V28.9286C28 29.2127 27.8771 29.4853 27.6583 29.6862C27.4395 29.8871 27.1428 30 26.8333 30H1.16667C0.857247 30 0.560501 29.8871 0.341709 29.6862C0.122917 29.4853 0 29.2127 0 28.9286V7.5C0 7.21584 0.122917 6.94332 0.341709 6.74239C0.560501 6.54145 0.857247 6.42857 1.16667 6.42857H7ZM9.33333 6.42857H18.6667C18.6667 5.29193 18.175 4.20184 17.2998 3.39811C16.4247 2.59439 15.2377 2.14286 14 2.14286C12.7623 2.14286 11.5753 2.59439 10.7002 3.39811C9.825 4.20184 9.33333 5.29193 9.33333 6.42857Z" fill="#E2EEF8"/>
</svg>
